<svg width="71" height="61" viewBox="0 0 71 61" fill="none" xmlns="http://www.w3.org/2000/svg">
<g clip-path="url(#clip0_12_32)">
<path d="M8.59997 0.533508L0.538635 8.51794V60.4575H70.4522V8.51794L62.4 0.533508H8.59997Z" fill="white" stroke="#00263A" stroke-width="1.19" stroke-miterlimit="10"/>
<path d="M17.912 11.9631C17.8872 11.9639 17.8628 11.9562 17.8428 11.9415C17.8229 11.9267 17.8087 11.9056 17.8025 11.8817L16.8895 8.73497L15.9766 11.8817C15.9704 11.9056 15.9561 11.9267 15.9362 11.9415C15.9163 11.9562 15.8919 11.9639 15.867 11.9631H14.8263C14.801 11.9658 14.7756 11.9589 14.7553 11.9438C14.735 11.9287 14.7212 11.9065 14.7167 11.8817L13.1738 6.45628C13.1738 6.40203 13.1738 6.3749 13.2377 6.3749H14.6072C14.6198 6.3723 14.6329 6.37239 14.6456 6.37518C14.6582 6.37798 14.6701 6.3834 14.6805 6.3911C14.6908 6.3988 14.6994 6.40859 14.7057 6.41983C14.7119 6.43107 14.7157 6.4435 14.7167 6.45628L15.4471 9.72963L16.36 6.45628C16.3645 6.43151 16.3783 6.40933 16.3986 6.39423C16.419 6.37913 16.4443 6.37222 16.4696 6.3749H17.3277C17.3404 6.3723 17.3535 6.37239 17.3662 6.37518C17.3788 6.37798 17.3907 6.3834 17.4011 6.3911C17.4114 6.3988 17.42 6.40859 17.4263 6.41983C17.4325 6.43107 17.4363 6.4435 17.4373 6.45628L18.3503 9.72963L19.0532 6.45628C19.0544 6.44439 19.0579 6.43283 19.0636 6.42228C19.0692 6.41174 19.077 6.40241 19.0863 6.39485C19.0956 6.38728 19.1064 6.38162 19.118 6.3782C19.1295 6.37477 19.1416 6.37365 19.1536 6.3749H20.5687C20.6235 6.3749 20.6509 6.3749 20.6326 6.45628L19.0989 11.8817C19.0924 11.9072 19.0768 11.9295 19.055 11.9445C19.0331 11.9595 19.0066 11.9661 18.9802 11.9631H17.912Z" fill="#00263A"/>
<path d="M21.7282 11.9631C21.7174 11.9631 21.7067 11.961 21.6967 11.9569C21.6867 11.9528 21.6777 11.9468 21.6701 11.9393C21.6624 11.9317 21.6564 11.9227 21.6522 11.9129C21.6481 11.903 21.646 11.8924 21.646 11.8817V6.45628C21.6445 6.44524 21.6456 6.434 21.6492 6.42345C21.6528 6.41289 21.6588 6.4033 21.6667 6.39543C21.6747 6.38755 21.6844 6.3816 21.695 6.37804C21.7057 6.37448 21.717 6.3734 21.7282 6.37489H24.0014C24.2684 6.33315 24.5415 6.35066 24.8009 6.42617C25.0603 6.50168 25.2995 6.6333 25.5013 6.81152C25.7031 6.98975 25.8624 7.21013 25.9677 7.45675C26.073 7.70338 26.1217 7.97009 26.1103 8.23763C26.1245 8.50665 26.0779 8.77542 25.9738 9.0243C25.8697 9.27319 25.7108 9.4959 25.5087 9.67616C25.3066 9.85642 25.0664 9.98968 24.8056 10.0662C24.5448 10.1427 24.27 10.1606 24.0014 10.1184H23.1706C23.1631 10.1167 23.1552 10.1169 23.1477 10.119C23.1403 10.1211 23.1335 10.1251 23.128 10.1305C23.1226 10.1359 23.1185 10.1427 23.1164 10.15C23.1143 10.1574 23.1141 10.1652 23.1158 10.1727V11.9179C23.1173 11.9289 23.1163 11.9402 23.1127 11.9507C23.1091 11.9613 23.1031 11.9709 23.0951 11.9787C23.0871 11.9866 23.0775 11.9926 23.0668 11.9961C23.0562 11.9997 23.0448 12.0008 23.0337 11.9993L21.7282 11.9631ZM24.6405 8.20146C24.6405 7.81264 24.3848 7.56849 23.9192 7.56849H23.1706C23.1706 7.56849 23.1158 7.56849 23.1158 7.6137V8.79826C23.1141 8.80573 23.1143 8.81353 23.1164 8.82091C23.1185 8.82829 23.1226 8.83501 23.128 8.84044C23.1335 8.84586 23.1403 8.84982 23.1477 8.85193C23.1552 8.85404 23.1631 8.85424 23.1706 8.85251H23.9192C24.0113 8.8644 24.105 8.85626 24.1936 8.82866C24.2822 8.80105 24.3636 8.75465 24.4323 8.69267C24.501 8.6307 24.5551 8.55465 24.5911 8.46981C24.627 8.38498 24.6439 8.2934 24.6405 8.20146Z" fill="#00263A"/>
<path d="M28.0732 10.5886C27.9453 10.1328 27.8929 9.6595 27.918 9.18707C27.8944 8.71171 27.9468 8.23564 28.0732 7.77645C28.2069 7.38386 28.4617 7.04271 28.8015 6.80106C29.1414 6.55942 29.5492 6.42944 29.9675 6.42944C30.3859 6.42944 30.7937 6.55942 31.1335 6.80106C31.4734 7.04271 31.7281 7.38386 31.8619 7.77645C31.9867 8.20505 32.0391 8.65112 32.0171 9.09664C32.0171 9.15994 32.0171 9.20515 31.8893 9.20515H28.3197C28.274 9.20515 28.2558 9.20515 28.2558 9.28653C28.2399 9.68843 28.2829 10.0905 28.3836 10.4801C28.4817 10.8324 28.6999 11.1401 29.0011 11.3511C29.3024 11.562 29.668 11.6633 30.036 11.6376C30.3469 11.6496 30.656 11.5858 30.9362 11.4518C31.2164 11.3178 31.459 11.1176 31.6428 10.869C31.6522 10.8576 31.664 10.8484 31.6775 10.8422C31.6909 10.8359 31.7055 10.8326 31.7204 10.8326C31.7352 10.8326 31.7499 10.8359 31.7633 10.8422C31.7767 10.8484 31.7886 10.8576 31.798 10.869L31.871 10.9232C31.8825 10.9325 31.8917 10.9443 31.8981 10.9576C31.9044 10.9709 31.9077 10.9854 31.9077 11.0001C31.9077 11.0148 31.9044 11.0293 31.8981 11.0426C31.8917 11.0559 31.8825 11.0676 31.871 11.0769C31.6642 11.3637 31.3897 11.596 31.0714 11.7536C30.7532 11.9112 30.4009 11.9893 30.0451 11.9812C29.6035 12.0163 29.1635 11.8959 28.8027 11.6411C28.442 11.3864 28.1836 11.0136 28.0732 10.5886ZM31.6063 8.89771C31.6162 8.89926 31.6264 8.89845 31.636 8.89536C31.6455 8.89228 31.6542 8.88699 31.6614 8.87994C31.6685 8.87288 31.6738 8.86427 31.6769 8.85479C31.6801 8.8453 31.6809 8.83522 31.6793 8.82537C31.6844 8.51921 31.6413 8.21414 31.5515 7.92113C31.4423 7.58907 31.2298 7.29975 30.9445 7.09458C30.6591 6.88942 30.3156 6.77893 29.963 6.77893C29.6104 6.77893 29.2668 6.88942 28.9815 7.09458C28.6961 7.29975 28.4837 7.58907 28.3744 7.92113C28.2925 8.21559 28.2525 8.51995 28.2558 8.82537C28.2558 8.82537 28.2558 8.89771 28.3197 8.89771H31.6063Z" fill="#00263A"/>
<path d="M37.0748 11.8455C37.0597 11.8456 37.0446 11.8425 37.0307 11.8365C37.0168 11.8305 37.0043 11.8217 36.994 11.8106C36.9837 11.7996 36.9758 11.7865 36.9709 11.7723C36.9659 11.7581 36.964 11.743 36.9653 11.728V8.56314C36.9653 7.31529 36.4449 6.75466 35.395 6.75466C35.1764 6.74554 34.9583 6.78177 34.7546 6.86103C34.5509 6.9403 34.3662 7.06084 34.2124 7.21494C34.0585 7.36905 33.9389 7.5533 33.8611 7.75588C33.7833 7.95847 33.7492 8.17491 33.7608 8.39134V11.728C33.7621 11.743 33.7602 11.7581 33.7553 11.7723C33.7503 11.7865 33.7425 11.7996 33.7322 11.8106C33.7219 11.8217 33.7094 11.8305 33.6954 11.8365C33.6815 11.8425 33.6665 11.8456 33.6513 11.8455H33.5326C33.5174 11.8456 33.5024 11.8425 33.4885 11.8365C33.4745 11.8305 33.462 11.8217 33.4517 11.8106C33.4414 11.7996 33.4335 11.7865 33.4286 11.7723C33.4237 11.7581 33.4218 11.743 33.4231 11.728V6.66424C33.4231 6.63546 33.4346 6.60786 33.4551 6.58751C33.4757 6.56716 33.5035 6.55573 33.5326 6.55573H33.6513C33.6803 6.55573 33.7082 6.56716 33.7288 6.58751C33.7493 6.60786 33.7608 6.63546 33.7608 6.66424V7.41476C33.9046 7.1078 34.1381 6.85065 34.4311 6.67655C34.7241 6.50244 35.063 6.41941 35.4041 6.43818C36.6184 6.43818 37.294 7.1254 37.294 8.48176V11.728C37.2954 11.7438 37.2932 11.7597 37.2878 11.7746C37.2823 11.7894 37.2736 11.803 37.2623 11.8142C37.251 11.8254 37.2373 11.834 37.2223 11.8394C37.2073 11.8448 37.1912 11.8469 37.1753 11.8455H37.0748Z" fill="#00263A"/>
<path d="M38.9099 13.1838C38.8997 13.1737 38.8915 13.1617 38.886 13.1485C38.8805 13.1354 38.8776 13.1212 38.8776 13.1069C38.8776 13.0927 38.8805 13.0785 38.886 13.0653C38.8915 13.0521 38.8997 13.0402 38.9099 13.0301L39.0012 12.9758C39.0233 12.9548 39.0527 12.9431 39.0833 12.9431C39.114 12.9431 39.1434 12.9548 39.1655 12.9758C39.333 13.1852 39.5492 13.3514 39.7956 13.46C40.042 13.5687 40.3114 13.6166 40.5806 13.5997C41.5939 13.5997 42.2513 13.1115 42.2513 11.7913V10.887C42.1176 11.2086 41.8829 11.4789 41.582 11.6581C41.2811 11.8372 40.93 11.9156 40.5806 11.8817C40.1839 11.902 39.7922 11.7876 39.4701 11.5574C39.148 11.3272 38.915 10.995 38.8094 10.6158C38.5661 9.63569 38.5661 8.61183 38.8094 7.63177C38.915 7.25252 39.148 6.92032 39.4701 6.69012C39.7922 6.45992 40.1839 6.34551 40.5806 6.36583C40.93 6.33187 41.2811 6.41028 41.582 6.58943C41.8829 6.76857 42.1176 7.03894 42.2513 7.3605V6.59189C42.2513 6.56311 42.2628 6.53551 42.2833 6.51516C42.3039 6.49482 42.3318 6.48338 42.3608 6.48338H42.4795C42.4946 6.48213 42.5099 6.48401 42.5242 6.48889C42.5386 6.49378 42.5518 6.50158 42.5629 6.51178C42.5741 6.52198 42.583 6.53437 42.5891 6.54817C42.5951 6.56196 42.5982 6.57685 42.5982 6.59189V11.7822C42.6469 12.0594 42.6297 12.344 42.5479 12.6134C42.4661 12.8828 42.322 13.1296 42.127 13.3342C41.932 13.5387 41.6915 13.6954 41.4246 13.7917C41.1577 13.8881 40.8718 13.9214 40.5897 13.8891C40.2734 13.9112 39.9562 13.8589 39.6643 13.7363C39.3723 13.6137 39.1138 13.4244 38.9099 13.1838ZM42.1234 10.5615C42.3181 9.64925 42.3181 8.70678 42.1234 7.79453C42.0317 7.48306 41.8368 7.21118 41.5703 7.02259C41.3037 6.83399 40.9808 6.73963 40.6536 6.75465C40.323 6.73471 39.9955 6.82809 39.7261 7.0191C39.4568 7.21011 39.2621 7.48712 39.1746 7.80357C38.9435 8.71781 38.9435 9.67439 39.1746 10.5886C39.2621 10.9051 39.4568 11.1821 39.7261 11.3731C39.9955 11.5641 40.323 11.6575 40.6536 11.6375C40.9832 11.6515 41.3079 11.5546 41.5748 11.3625C41.8417 11.1704 42.0351 10.8944 42.1234 10.5796V10.5615Z" fill="#00263A"/>
<path d="M44.4424 4.91908C44.4134 4.91908 44.3855 4.90764 44.365 4.8873C44.3444 4.86695 44.3329 4.83935 44.3329 4.81057V4.36749C44.3316 4.3525 44.3335 4.33741 44.3385 4.32318C44.3434 4.30896 44.3513 4.29591 44.3616 4.28485C44.3719 4.2738 44.3844 4.26498 44.3983 4.25897C44.4122 4.25296 44.4273 4.24989 44.4424 4.24994H44.7163C44.7315 4.24989 44.7466 4.25296 44.7605 4.25897C44.7744 4.26498 44.7869 4.2738 44.7972 4.28485C44.8075 4.29591 44.8154 4.30896 44.8203 4.32318C44.8253 4.33741 44.8272 4.3525 44.8259 4.36749V4.81057C44.8259 4.83935 44.8143 4.86695 44.7938 4.8873C44.7733 4.90764 44.7454 4.91908 44.7163 4.91908H44.4424ZM44.5246 11.8456C44.5087 11.8469 44.4926 11.8448 44.4776 11.8394C44.4626 11.834 44.4489 11.8254 44.4376 11.8142C44.4263 11.803 44.4176 11.7895 44.4121 11.7746C44.4067 11.7597 44.4045 11.7438 44.4059 11.728V6.66426C44.4059 6.64922 44.409 6.63433 44.4151 6.62054C44.4211 6.60675 44.43 6.59435 44.4412 6.58415C44.4523 6.57394 44.4655 6.56615 44.4799 6.56127C44.4942 6.55638 44.5095 6.5545 44.5246 6.55575H44.6342C44.6632 6.55575 44.6911 6.56718 44.7116 6.58753C44.7322 6.60788 44.7437 6.63548 44.7437 6.66426V11.728C44.745 11.743 44.7431 11.7581 44.7382 11.7723C44.7332 11.7865 44.7254 11.7996 44.7151 11.8106C44.7047 11.8217 44.6922 11.8305 44.6783 11.8365C44.6644 11.8425 44.6494 11.8456 44.6342 11.8456H44.5246Z" fill="#00263A"/>
<path d="M50.2031 11.8455C50.1871 11.8469 50.1711 11.8448 50.156 11.8394C50.141 11.834 50.1274 11.8254 50.1161 11.8142C50.1047 11.803 50.096 11.7894 50.0906 11.7746C50.0851 11.7597 50.083 11.7438 50.0844 11.728V8.56314C50.0844 7.31529 49.564 6.75466 48.5232 6.75466C48.3046 6.74554 48.0865 6.78177 47.8828 6.86103C47.6792 6.9403 47.4945 7.06084 47.3406 7.21494C47.1867 7.36905 47.0671 7.5533 46.9893 7.75588C46.9116 7.95847 46.8774 8.17491 46.8891 8.39134V11.728C46.8905 11.7438 46.8883 11.7597 46.8829 11.7746C46.8774 11.7894 46.8687 11.803 46.8574 11.8142C46.8461 11.8254 46.8324 11.834 46.8174 11.8394C46.8024 11.8448 46.7863 11.8469 46.7704 11.8455H46.6608C46.6456 11.8456 46.6306 11.8425 46.6167 11.8365C46.6028 11.8305 46.5903 11.8217 46.58 11.8106C46.5697 11.7996 46.5618 11.7865 46.5568 11.7723C46.5519 11.7581 46.55 11.743 46.5513 11.728V6.66424C46.5513 6.63546 46.5628 6.60786 46.5834 6.58751C46.6039 6.56716 46.6318 6.55573 46.6608 6.55573H46.7704C46.7855 6.55448 46.8008 6.55636 46.8151 6.56125C46.8295 6.56613 46.8427 6.57393 46.8538 6.58413C46.865 6.59433 46.8739 6.60673 46.8799 6.62052C46.886 6.63431 46.8891 6.6492 46.8891 6.66424V7.41476C47.0329 7.1078 47.2664 6.85065 47.5593 6.67655C47.8523 6.50244 48.1913 6.41941 48.5324 6.43818C49.7375 6.43818 50.4131 7.1254 50.4131 8.48176V11.728C50.4143 11.743 50.4124 11.7581 50.4075 11.7723C50.4025 11.7865 50.3947 11.7996 50.3844 11.8106C50.3741 11.8217 50.3616 11.8305 50.3476 11.8365C50.3337 11.8425 50.3187 11.8456 50.3035 11.8455H50.2031Z" fill="#00263A"/>
<path d="M51.9194 10.5886C51.7915 10.1328 51.7391 9.6595 51.7642 9.18707C51.7406 8.71171 51.793 8.23564 51.9194 7.77646C52.0379 7.37442 52.2898 7.02369 52.6343 6.78087C52.9789 6.53805 53.396 6.41733 53.8183 6.43818C54.2387 6.40836 54.6566 6.52354 55.0011 6.76418C55.3456 7.00481 55.5954 7.35608 55.7081 7.75837C55.8329 8.18697 55.8853 8.63304 55.8633 9.07856C55.8633 9.09361 55.8602 9.1085 55.8542 9.12229C55.8481 9.13608 55.8392 9.14847 55.8281 9.15867C55.8169 9.16888 55.8037 9.17667 55.7893 9.18156C55.775 9.18645 55.7597 9.18833 55.7446 9.18707H52.1659C52.1562 9.18819 52.1469 9.19119 52.1385 9.1959C52.1301 9.20061 52.1226 9.20694 52.1167 9.21451C52.1107 9.22208 52.1064 9.23075 52.1039 9.24002C52.1013 9.24928 52.1007 9.25894 52.1019 9.26845C52.0834 9.67099 52.1296 10.0739 52.2389 10.4621C52.3352 10.8135 52.5517 11.1211 52.8514 11.3321C53.151 11.5432 53.5154 11.6448 53.8822 11.6195C54.1944 11.6315 54.5048 11.5677 54.7864 11.4338C55.0681 11.2998 55.3124 11.0997 55.4981 10.8509C55.5075 10.8395 55.5194 10.8304 55.5328 10.8241C55.5462 10.8178 55.5609 10.8145 55.5757 10.8145C55.5906 10.8145 55.6052 10.8178 55.6186 10.8241C55.6321 10.8304 55.6439 10.8395 55.6533 10.8509L55.7172 10.9051C55.7287 10.9145 55.7379 10.9262 55.7443 10.9395C55.7506 10.9528 55.7539 10.9673 55.7539 10.982C55.7539 10.9967 55.7506 11.0112 55.7443 11.0245C55.7379 11.0378 55.7287 11.0495 55.7172 11.0588C55.5115 11.3468 55.2372 11.5799 54.9187 11.7377C54.6002 11.8954 54.2473 11.9728 53.8913 11.9631C53.4521 11.9991 53.0141 11.8813 52.6537 11.6301C52.2933 11.3789 52.0334 11.0103 51.9194 10.5886ZM55.4616 8.89771C55.5072 8.89771 55.5255 8.89772 55.5255 8.82538C55.5287 8.51996 55.4888 8.21559 55.4068 7.92114C55.2976 7.58908 55.0851 7.29975 54.7998 7.09459C54.5145 6.88942 54.1709 6.77893 53.8183 6.77893C53.4657 6.77893 53.1221 6.88942 52.8368 7.09459C52.5515 7.29975 52.339 7.58908 52.2298 7.92114C52.14 8.21415 52.0969 8.51922 52.1019 8.82538C52.1006 8.83441 52.1013 8.84363 52.1039 8.85238C52.1065 8.86114 52.111 8.86923 52.1171 8.8761C52.1232 8.88298 52.1307 8.88846 52.1391 8.89219C52.1475 8.89593 52.1566 8.89781 52.1659 8.89771H55.4616Z" fill="#00263A"/>
<path d="M56.5114 7.08925C56.5005 6.99792 56.5092 6.90534 56.537 6.81761C56.5648 6.72987 56.6111 6.64896 56.6728 6.58022C56.7345 6.51147 56.8101 6.45645 56.8948 6.41877C56.9795 6.38108 57.0713 6.3616 57.1642 6.3616C57.257 6.3616 57.3488 6.38108 57.4335 6.41877C57.5182 6.45645 57.5939 6.51147 57.6555 6.58022C57.7172 6.64896 57.7635 6.72987 57.7913 6.81761C57.8191 6.90534 57.8278 6.99792 57.8169 7.08925C57.798 7.24755 57.7211 7.39347 57.6008 7.49935C57.4805 7.60523 57.3251 7.66371 57.1642 7.66371C57.0032 7.66371 56.8479 7.60523 56.7276 7.49935C56.6072 7.39347 56.5303 7.24755 56.5114 7.08925ZM57.7165 7.08925C57.7165 6.97977 57.6836 6.87278 57.622 6.78188C57.5604 6.69099 57.4728 6.62031 57.3705 6.57884C57.2683 6.53737 57.1558 6.52699 57.0476 6.54902C56.9393 6.57104 56.8401 6.62448 56.7626 6.70253C56.6851 6.78058 56.6328 6.8797 56.6123 6.98729C56.5919 7.09488 56.6042 7.20606 56.6478 7.30667C56.6913 7.40729 56.7641 7.4928 56.8569 7.55231C56.9497 7.61181 57.0582 7.64263 57.1687 7.64083C57.2418 7.6421 57.3143 7.62864 57.382 7.60125C57.4496 7.57386 57.5109 7.53313 57.5622 7.48153C57.6134 7.42993 57.6535 7.36854 57.6801 7.3011C57.7066 7.23366 57.719 7.16158 57.7165 7.08925ZM56.9496 7.4419V6.77276H57.2235C57.2537 6.76849 57.2845 6.77108 57.3135 6.78034C57.3425 6.7896 57.369 6.80527 57.391 6.82619C57.413 6.8471 57.4299 6.8727 57.4404 6.90105C57.4509 6.92939 57.4548 6.95974 57.4517 6.98978C57.4548 7.03361 57.4417 7.07705 57.4148 7.11199C57.388 7.14694 57.3492 7.17099 57.3057 7.17967L57.4517 7.46903H57.3878L57.2418 7.18871H57.0774V7.45094L56.9496 7.4419ZM57.3422 6.93553C57.3422 6.86319 57.3422 6.81798 57.2144 6.81798H57.0318V7.02595H57.2144C57.3057 7.04404 57.3422 6.99882 57.3422 6.93553Z" fill="#00263A"/>
<path d="M63.4956 42.5083H7.50446V53.0156H63.4956V42.5083Z" fill="#FF6C37"/>
<path d="M17.8298 50.3029V45.3386C17.8298 45.2843 17.8298 45.2662 17.9028 45.2662H18.195C18.219 45.2632 18.2433 45.2689 18.2634 45.2821C18.2835 45.2954 18.2981 45.3155 18.3045 45.3386L19.9843 48.9555L21.6185 45.3386C21.6249 45.3155 21.6395 45.2954 21.6596 45.2821C21.6798 45.2689 21.7041 45.2632 21.7281 45.2662H22.0202C22.075 45.2662 22.1024 45.2662 22.1024 45.3386V50.3029C22.1024 50.3029 22.1024 50.3752 22.0202 50.3752H21.7463C21.6915 50.3752 21.6642 50.3752 21.6642 50.3029V46.2971L20.1761 49.5433C20.1637 49.5686 20.1441 49.5897 20.1198 49.6042C20.0955 49.6186 20.0675 49.6257 20.0391 49.6247H19.8839C19.8569 49.6251 19.8303 49.6176 19.8076 49.6032C19.7848 49.5887 19.7669 49.5678 19.7561 49.5433L18.268 46.2971V50.3029C18.268 50.3029 18.268 50.3752 18.195 50.3752H17.9119C17.9014 50.3785 17.8901 50.3791 17.8793 50.3768C17.8684 50.3745 17.8584 50.3695 17.8501 50.3622C17.8418 50.3549 17.8355 50.3456 17.832 50.3352C17.8284 50.3248 17.8277 50.3136 17.8298 50.3029Z" fill="white"/>
<path d="M25.1335 50.3028V45.3386C25.1335 45.2843 25.1335 45.2662 25.2156 45.2662H28.1645C28.2193 45.2662 28.2466 45.2662 28.2466 45.3386V45.5918C28.2466 45.646 28.2466 45.6641 28.1645 45.6641H25.6173H25.5717V47.4726C25.5717 47.4726 25.5717 47.5178 25.6173 47.5178H27.8084C27.8632 47.5178 27.8906 47.5178 27.8906 47.5901V47.8433C27.8921 47.8544 27.891 47.8656 27.8874 47.8761C27.8838 47.8867 27.8778 47.8963 27.8699 47.9042C27.8619 47.912 27.8522 47.918 27.8416 47.9215C27.8309 47.9251 27.8196 47.9262 27.8084 47.9247H25.6173C25.6173 47.9247 25.5717 47.9247 25.5717 47.9699V49.8598C25.5717 49.8598 25.5717 49.905 25.6173 49.905H28.1645C28.1756 49.9035 28.187 49.9046 28.1976 49.9081C28.2083 49.9117 28.2179 49.9176 28.2259 49.9255C28.2339 49.9334 28.2399 49.943 28.2435 49.9535C28.2471 49.9641 28.2482 49.9753 28.2466 49.9864V50.2396C28.2466 50.2396 28.2466 50.3119 28.1645 50.3119H25.2156C25.1335 50.3752 25.1335 50.3481 25.1335 50.3028Z" fill="white"/>
<path d="M30.8394 50.3028V45.3385C30.8394 45.2843 30.8394 45.2662 30.9216 45.2662H31.2046C31.2295 45.2643 31.2545 45.2703 31.2758 45.2833C31.2971 45.2963 31.3137 45.3156 31.3233 45.3385L32.994 48.9555L34.6281 45.3385C34.636 45.3164 34.651 45.2973 34.6707 45.2843C34.6905 45.2712 34.714 45.2649 34.7377 45.2662H35.039C35.0846 45.2662 35.112 45.2662 35.112 45.3385V50.3028C35.1136 50.3127 35.1128 50.3228 35.1096 50.3322C35.1065 50.3417 35.1012 50.3503 35.0941 50.3574C35.0869 50.3644 35.0782 50.3697 35.0687 50.3728C35.0591 50.3759 35.0489 50.3767 35.039 50.3752H34.756C34.7012 50.3752 34.6738 50.3752 34.6738 50.3028V46.297L33.1857 49.5433C33.1733 49.5685 33.1538 49.5897 33.1295 49.6041C33.1051 49.6186 33.0771 49.6257 33.0488 49.6246H32.8936C32.8665 49.6251 32.8399 49.6176 32.8172 49.6031C32.7945 49.5886 32.7766 49.5678 32.7657 49.5433L31.2776 46.297V50.3028C31.2776 50.3028 31.2776 50.3752 31.1955 50.3752H30.9216C30.8668 50.3752 30.8394 50.348 30.8394 50.3028Z" fill="white"/>
<path d="M38.0973 50.3029V45.3386C38.0973 45.2843 38.0973 45.2663 38.1703 45.2663H39.9049C40.3076 45.242 40.7049 45.3678 41.0187 45.6189C41.1491 45.7434 41.2508 45.8943 41.317 46.0613C41.3832 46.2282 41.4122 46.4074 41.4022 46.5865C41.4286 46.84 41.3632 47.0947 41.2178 47.305C41.0723 47.5153 40.8562 47.6676 40.6079 47.7348C40.849 47.7894 41.0626 47.9273 41.2104 48.1237C41.4016 48.3583 41.4991 48.6544 41.4843 48.9556C41.4948 49.1465 41.4635 49.3375 41.3926 49.5154C41.3217 49.6933 41.2128 49.854 41.0735 49.9864C40.7443 50.2499 40.3275 50.3821 39.9049 50.3571H38.1703C38.1156 50.3752 38.0973 50.3481 38.0973 50.3029ZM38.572 47.5902H39.8958C40.1845 47.6056 40.4684 47.5119 40.6901 47.3279C40.7836 47.2397 40.8573 47.1329 40.906 47.0144C40.9548 46.8959 40.9777 46.7686 40.9731 46.6407C40.979 46.5113 40.9568 46.3822 40.908 46.2621C40.8591 46.142 40.7848 46.0337 40.6901 45.9444C40.4693 45.7589 40.1848 45.6649 39.8958 45.6822H38.572H38.5264V47.4907L38.572 47.5449V47.5902ZM38.5264 49.9412C38.5264 49.9412 38.5264 49.9864 38.572 49.9864H39.9323C40.2326 50.0048 40.5289 49.9112 40.7631 49.7242C40.9512 49.5276 41.0561 49.2671 41.0561 48.9963C41.0561 48.7254 40.9512 48.4649 40.7631 48.2683C40.5321 48.0748 40.2343 47.9775 39.9323 47.9971H38.572H38.5264V49.9412Z" fill="white"/>
<path d="M44.1776 50.3028V45.3386C44.1776 45.2843 44.1776 45.2662 44.2506 45.2662H47.2086C47.2086 45.2662 47.2816 45.2662 47.2816 45.3386V45.5918C47.2816 45.646 47.2816 45.6641 47.2086 45.6641H44.6523V47.4726V47.5178H46.8525C46.8625 47.5162 46.8727 47.517 46.8822 47.5201C46.8918 47.5232 46.9005 47.5285 46.9076 47.5356C46.9148 47.5426 46.9201 47.5512 46.9232 47.5607C46.9263 47.5702 46.9271 47.5803 46.9256 47.5901V47.8433C46.9256 47.8976 46.9256 47.9247 46.8525 47.9247H44.6523C44.6523 47.9247 44.6523 47.9247 44.6523 47.9699V49.8598V49.905H47.2086C47.2086 49.905 47.2816 49.905 47.2816 49.9864V50.2396C47.2832 50.2494 47.2824 50.2595 47.2793 50.269C47.2761 50.2784 47.2708 50.2871 47.2637 50.2941C47.2566 50.3012 47.2479 50.3064 47.2383 50.3095C47.2287 50.3126 47.2185 50.3134 47.2086 50.3119H44.2506C44.239 50.318 44.2258 50.3204 44.2127 50.3188C44.1996 50.3172 44.1874 50.3116 44.1776 50.3028Z" fill="white"/>
<path d="M53.3253 50.3752H52.9783C52.9582 50.3761 52.9383 50.3704 52.9218 50.3589C52.9053 50.3475 52.8931 50.3309 52.887 50.3119L51.8007 48.0875H50.3947V48.1327V50.3029C50.3963 50.3127 50.3955 50.3228 50.3923 50.3323C50.3892 50.3417 50.3839 50.3504 50.3768 50.3574C50.3696 50.3645 50.3609 50.3698 50.3514 50.3728C50.3418 50.3759 50.3316 50.3767 50.3217 50.3752H50.0387C50.0287 50.3767 50.0185 50.3759 50.009 50.3728C49.9994 50.3698 49.9907 50.3645 49.9836 50.3574C49.9764 50.3504 49.9711 50.3417 49.968 50.3323C49.9649 50.3228 49.9641 50.3127 49.9656 50.3029V45.3386C49.9656 45.2843 49.9656 45.2662 50.0387 45.2662H51.7733C52.1914 45.2439 52.6026 45.3796 52.9236 45.646C53.1669 45.8986 53.3136 46.2274 53.3386 46.5756C53.3636 46.9238 53.2653 47.2698 53.0605 47.554C52.8665 47.7988 52.5919 47.9684 52.2845 48.0332L53.4074 50.2938C53.4348 50.3481 53.4348 50.3752 53.3253 50.3752ZM51.7185 47.6625C52.0231 47.6828 52.3248 47.5928 52.5675 47.4093C52.6714 47.315 52.7518 47.1982 52.8025 47.068C52.8532 46.9378 52.8727 46.7977 52.8597 46.6588C52.8713 46.5213 52.851 46.383 52.8004 46.2545C52.7498 46.126 52.6701 46.0106 52.5675 45.9173C52.3295 45.7234 52.026 45.6265 51.7185 45.646H50.3947V47.572V47.6173L51.7185 47.6625Z" fill="white"/>
<path d="M8.30783 38.5748H7.39488C7.33097 38.5748 7.29446 38.5748 7.29446 38.4844V32.1005C7.29302 32.0871 7.29463 32.0735 7.29916 32.0608C7.3037 32.0481 7.31104 32.0365 7.32067 32.027C7.3303 32.0175 7.34196 32.0102 7.3548 32.0057C7.36764 32.0012 7.38134 31.9996 7.39488 32.001H9.87809C10.4599 31.9764 11.0279 32.1812 11.4575 32.5707C11.6612 32.7578 11.8214 32.9865 11.927 33.241C12.0326 33.4955 12.0811 33.7697 12.0692 34.0446C12.0806 34.3208 12.0319 34.5962 11.9264 34.852C11.8208 35.1079 11.6609 35.3383 11.4575 35.5275C11.0279 35.917 10.4599 36.1218 9.87809 36.0972H8.50867C8.46302 36.0972 8.44477 36.0972 8.44477 36.1515V38.5025C8.40825 38.5477 8.38087 38.5748 8.30783 38.5748ZM9.77766 35.0573C10.0707 35.0726 10.3584 34.9754 10.5811 34.7861C10.6812 34.6905 10.7599 34.575 10.8118 34.4473C10.8637 34.3195 10.8878 34.1822 10.8823 34.0446C10.8914 33.9079 10.869 33.7709 10.8168 33.644C10.7646 33.5171 10.684 33.4037 10.5811 33.3122C10.4725 33.2151 10.3456 33.1403 10.2077 33.0922C10.0698 33.0441 9.92364 33.0236 9.77766 33.0318H8.47215C8.42651 33.0318 8.40824 33.0318 8.40824 33.0861V35.0031C8.40824 35.0031 8.40825 35.0573 8.47215 35.0573H9.77766Z" fill="#00263A"/>
<path d="M14.7714 38.5025L17.0538 32.1186C17.0583 32.089 17.074 32.0623 17.0978 32.0438C17.1215 32.0253 17.1515 32.0165 17.1816 32.0191H18.0945C18.1242 32.0185 18.1531 32.028 18.1765 32.0462C18.1998 32.0643 18.216 32.0899 18.2223 32.1186L20.4499 38.5025C20.4499 38.5658 20.4499 38.593 20.3769 38.593H19.4639C19.4495 38.5955 19.4348 38.5952 19.4205 38.5921C19.4062 38.5889 19.3927 38.5829 19.3808 38.5745C19.3688 38.5661 19.3588 38.5553 19.3511 38.543C19.3434 38.5306 19.3383 38.5169 19.3361 38.5025L18.8979 37.2276H16.3964L15.9217 38.5025C15.9152 38.5304 15.8986 38.555 15.8751 38.5717C15.8515 38.5883 15.8227 38.5959 15.7939 38.593H14.881C14.7805 38.5749 14.7531 38.5477 14.7714 38.5025ZM16.7068 36.2058H18.5327L17.6198 33.6558L16.7068 36.2058Z" fill="#00263A"/>
<path d="M29.0957 38.5749H28.0184C27.9894 38.58 27.9596 38.5757 27.9333 38.5626C27.907 38.5496 27.8856 38.5285 27.8723 38.5025L26.6033 35.9345H25.453C25.453 35.9345 25.3982 35.9345 25.3982 35.9978V38.5025C25.3982 38.5658 25.3982 38.593 25.2978 38.593H24.3849C24.3118 38.593 24.2844 38.593 24.2844 38.5025V32.1005C24.283 32.0871 24.2846 32.0736 24.2892 32.0608C24.2937 32.0481 24.301 32.0366 24.3107 32.027C24.3203 32.0175 24.332 32.0102 24.3448 32.0057C24.3576 32.0012 24.3713 31.9996 24.3849 32.0011H26.9594C27.5173 31.9853 28.06 32.1828 28.4749 32.5526C28.6734 32.7298 28.8302 32.9479 28.9344 33.1917C29.0385 33.4354 29.0873 33.6988 29.0774 33.9633C29.0841 34.3639 28.9627 34.7564 28.7305 35.0845C28.5086 35.4048 28.1885 35.6457 27.8176 35.7717L29.2144 38.4845C29.2226 38.4965 29.227 38.5106 29.227 38.5252C29.227 38.5397 29.2226 38.5538 29.2144 38.5658C29.2144 38.5658 29.1322 38.5749 29.0957 38.5749ZM26.8681 34.8856C27.1386 34.9006 27.4042 34.8097 27.6076 34.6324C27.6976 34.5434 27.769 34.4377 27.8177 34.3213C27.8664 34.2049 27.8914 34.0802 27.8914 33.9542C27.8914 33.8282 27.8664 33.7035 27.8177 33.5871C27.769 33.4708 27.6976 33.3651 27.6076 33.276C27.4042 33.0987 27.1386 33.0078 26.8681 33.0229H25.453C25.4455 33.0211 25.4376 33.0213 25.4301 33.0234C25.4227 33.0255 25.4159 33.0295 25.4104 33.0349C25.405 33.0404 25.4009 33.0471 25.3988 33.0545C25.3967 33.0618 25.3965 33.0696 25.3982 33.0771V34.8856C25.3965 34.8931 25.3967 34.9009 25.3988 34.9082C25.4009 34.9156 25.405 34.9223 25.4104 34.9278C25.4159 34.9332 25.4227 34.9372 25.4301 34.9393C25.4376 34.9414 25.4455 34.9416 25.453 34.9398L26.8681 34.8856Z" fill="#00263A"/>
<path d="M35.5867 38.5749H34.6738C34.6099 38.5749 34.5733 38.5749 34.5733 38.4845V33.0771C34.5751 33.0696 34.5749 33.0618 34.5727 33.0545C34.5706 33.0471 34.5666 33.0404 34.5611 33.0349C34.5557 33.0295 34.5489 33.0255 34.5414 33.0234C34.534 33.0213 34.5261 33.0211 34.5186 33.0229H32.7748C32.7109 33.0229 32.6835 33.0229 32.6835 32.9234V32.0915C32.6835 32.0282 32.6835 31.992 32.7748 31.992H37.5222C37.5357 31.9906 37.5494 31.9922 37.5622 31.9967C37.5751 32.0012 37.5867 32.0085 37.5964 32.018C37.606 32.0275 37.6133 32.0391 37.6179 32.0518C37.6224 32.0645 37.624 32.0781 37.6226 32.0915V32.9234C37.624 32.9368 37.6224 32.9504 37.6179 32.9631C37.6133 32.9758 37.606 32.9873 37.5964 32.9969C37.5867 33.0064 37.5751 33.0137 37.5622 33.0182C37.5494 33.0227 37.5357 33.0243 37.5222 33.0229H35.7876C35.7419 33.0229 35.7237 33.0229 35.7237 33.0771V38.5025C35.678 38.5478 35.6506 38.5749 35.5867 38.5749Z" fill="#00263A"/>
<path d="M41.4114 38.5025V32.1005C41.41 32.0871 41.4116 32.0736 41.4161 32.0608C41.4206 32.0481 41.428 32.0366 41.4376 32.027C41.4473 32.0175 41.4589 32.0102 41.4718 32.0057C41.4846 32.0012 41.4983 31.9996 41.5118 32.0011H42.4248C42.4588 32.0008 42.4922 32.01 42.5213 32.0276C42.5503 32.0452 42.5738 32.0704 42.5891 32.1005L45.3279 36.6217H45.3736V32.1005C45.3736 32.0372 45.3736 32.0011 45.4649 32.0011H46.3231C46.387 32.0011 46.4144 32.0011 46.4144 32.1005V38.5025C46.4144 38.5658 46.4144 38.593 46.3231 38.593H45.4101C45.3726 38.6011 45.3333 38.5966 45.2986 38.5802C45.2639 38.5638 45.2357 38.5365 45.2184 38.5025L42.4795 33.9813V38.5025C42.4795 38.5658 42.4795 38.593 42.3882 38.593H41.5392C41.4479 38.5749 41.4114 38.5477 41.4114 38.5025Z" fill="#00263A"/>
<path d="M50.6961 38.5025V32.1005C50.6946 32.0871 50.6962 32.0736 50.7008 32.0608C50.7053 32.0481 50.7127 32.0366 50.7223 32.027C50.7319 32.0175 50.7436 32.0102 50.7564 32.0057C50.7693 32.0012 50.783 31.9996 50.7965 32.0011H54.9504C54.964 31.9996 54.9776 32.0012 54.9905 32.0057C55.0033 32.0102 55.015 32.0175 55.0246 32.027C55.0342 32.0366 55.0416 32.0481 55.0461 32.0608C55.0507 32.0736 55.0523 32.0871 55.0508 32.1005V32.9324C55.0523 32.9458 55.0507 32.9594 55.0461 32.9721C55.0416 32.9848 55.0342 32.9964 55.0246 33.0059C55.015 33.0154 55.0033 33.0227 54.9905 33.0272C54.9776 33.0317 54.964 33.0333 54.9504 33.0319H51.9103C51.9103 33.0319 51.8464 33.0319 51.8464 33.0861V34.6957C51.8464 34.6957 51.8464 34.7499 51.9103 34.7499H54.4757C54.4892 34.7485 54.5029 34.7501 54.5157 34.7546C54.5286 34.7591 54.5402 34.7664 54.5499 34.7759C54.5595 34.7855 54.5669 34.797 54.5714 34.8097C54.5759 34.8224 54.5775 34.836 54.5761 34.8494V35.6813C54.5761 35.7446 54.5761 35.7717 54.4757 35.7717H51.9103C51.9015 35.7701 51.8925 35.7706 51.884 35.7732C51.8755 35.7758 51.8678 35.7805 51.8615 35.7867C51.8552 35.7929 51.8505 35.8006 51.8479 35.809C51.8453 35.8174 51.8447 35.8264 51.8464 35.835V37.4988C51.8464 37.4988 51.8464 37.5531 51.9103 37.5531H54.9504C54.964 37.5517 54.9776 37.5533 54.9905 37.5578C55.0033 37.5622 55.015 37.5695 55.0246 37.5791C55.0342 37.5886 55.0416 37.6002 55.0461 37.6129C55.0507 37.6256 55.0523 37.6391 55.0508 37.6526V38.5025C55.0508 38.5658 55.0508 38.593 54.9504 38.593H50.7965C50.7508 38.5749 50.6961 38.5477 50.6961 38.5025Z" fill="#00263A"/>
<path d="M64.0251 38.5749H62.9387C62.9076 38.5786 62.8761 38.5717 62.8495 38.5553C62.8229 38.5388 62.8029 38.5138 62.7926 38.4845L61.5236 35.9164H60.3825C60.3655 35.9164 60.3493 35.9231 60.3373 35.9349C60.3253 35.9468 60.3185 35.9629 60.3185 35.9797V38.5025C60.3185 38.5658 60.3186 38.593 60.2273 38.593H59.2687C59.2048 38.593 59.1682 38.593 59.1682 38.5025V32.1005C59.1668 32.0871 59.1684 32.0736 59.1729 32.0608C59.1775 32.0481 59.1848 32.0366 59.1945 32.027C59.2041 32.0175 59.2158 32.0102 59.2286 32.0057C59.2414 32.0012 59.2551 31.9996 59.2687 32.001H61.834C62.3948 31.9848 62.9405 32.1822 63.3587 32.5526C63.5522 32.7332 63.7051 32.9522 63.8073 33.1952C63.9096 33.4383 63.9589 33.7 63.9521 33.9633C63.9717 34.3599 63.8589 34.7519 63.6312 35.0787C63.4035 35.4056 63.0735 35.6491 62.6922 35.7717L64.089 38.4845C64.0973 38.4965 64.1017 38.5106 64.1017 38.5251C64.1017 38.5397 64.0973 38.5538 64.089 38.5658C64.0795 38.5715 64.069 38.5753 64.058 38.5768C64.047 38.5784 64.0358 38.5777 64.0251 38.5749ZM61.7975 34.8856C62.0676 34.8978 62.3322 34.8072 62.537 34.6324C62.7123 34.4493 62.81 34.2066 62.81 33.9542C62.81 33.7019 62.7123 33.4591 62.537 33.276C62.3322 33.1012 62.0676 33.0107 61.7975 33.0228H60.3825C60.3825 33.0228 60.3185 33.0228 60.3185 33.0771V34.8856C60.3185 34.8856 60.3186 34.9398 60.3825 34.9398L61.7975 34.8856Z" fill="#00263A"/>
<path d="M10.7454 18.1391C10.7561 18.0929 10.7832 18.052 10.8217 18.0238C10.8602 17.9956 10.9076 17.982 10.9554 17.9853H12.4069C12.454 17.9853 12.4998 18.0002 12.5376 18.0278C12.5754 18.0555 12.6032 18.0945 12.6169 18.1391L16.2687 28.5016C16.2687 28.5921 16.2687 28.6554 16.1592 28.6554H14.6071C14.559 28.6608 14.5106 28.6479 14.4717 28.6194C14.4327 28.5909 14.4061 28.5488 14.3972 28.5016L13.6851 26.4309H9.61332L8.90122 28.5016C8.89046 28.5479 8.86339 28.5887 8.8249 28.6169C8.7864 28.6451 8.739 28.6587 8.69125 28.6554H7.15749C7.04793 28.6554 7.01142 28.5921 7.04794 28.5016L10.7454 18.1391ZM13.1008 24.7762L11.6766 20.6348L10.2341 24.7762H13.1008Z" fill="#FF6C37"/>
<path d="M17.4282 23.3203C17.3539 22.3319 17.4496 21.3382 17.7112 20.3816C17.9634 19.5838 18.4824 18.8948 19.1826 18.428C19.8829 17.9612 20.7227 17.7445 21.5639 17.8135C22.3487 17.759 23.1312 17.9472 23.8034 18.3522C24.4755 18.7571 25.0041 19.3588 25.3161 20.0741C25.3338 20.1118 25.337 20.1546 25.3253 20.1945C25.3135 20.2344 25.2876 20.2687 25.2522 20.2911L23.9193 20.8699C23.8826 20.8835 23.8422 20.8837 23.8054 20.8704C23.7685 20.8572 23.7377 20.8313 23.7184 20.7975C23.5226 20.3966 23.2124 20.0613 22.8262 19.8331C22.4401 19.6049 21.9949 19.4938 21.5456 19.5135C21.0977 19.4794 20.6515 19.5993 20.2823 19.8529C19.9131 20.1066 19.6435 20.4785 19.5189 20.906C19.3344 21.7092 19.2698 22.5348 19.3272 23.3565C19.2705 24.1782 19.3351 25.0037 19.5189 25.807C19.6435 26.2345 19.9131 26.6065 20.2823 26.8601C20.6515 27.1138 21.0977 27.2336 21.5456 27.1995C21.9892 27.2255 22.4292 27.107 22.7985 26.8621C23.1677 26.6172 23.4459 26.2593 23.5906 25.8432C23.7203 25.3937 23.7788 24.927 23.7641 24.4597C23.7655 24.4463 23.7639 24.4327 23.7594 24.42C23.7548 24.4073 23.7475 24.3957 23.7379 24.3862C23.7282 24.3767 23.7166 24.3694 23.7037 24.3649C23.6909 24.3604 23.6772 24.3588 23.6637 24.3602H21.8925C21.8718 24.3615 21.851 24.3585 21.8316 24.3512C21.8122 24.344 21.7945 24.3327 21.7798 24.3181C21.7651 24.3036 21.7537 24.2861 21.7464 24.2669C21.7391 24.2476 21.736 24.227 21.7373 24.2065V22.9406C21.736 22.92 21.7391 22.8995 21.7464 22.8802C21.7537 22.8609 21.7651 22.8435 21.7798 22.8289C21.7945 22.8144 21.8122 22.8031 21.8316 22.7958C21.851 22.7886 21.8718 22.7855 21.8925 22.7868H25.4622C25.4829 22.7855 25.5037 22.7886 25.5231 22.7958C25.5426 22.8031 25.5602 22.8144 25.5749 22.8289C25.5896 22.8435 25.601 22.8609 25.6083 22.8802C25.6156 22.8995 25.6187 22.92 25.6174 22.9406V23.8448C25.6379 24.6303 25.552 25.4149 25.3617 26.1777C25.0641 26.9433 24.5392 27.6016 23.8564 28.0658C23.1736 28.5301 22.3647 28.7786 21.5365 28.7786C20.7082 28.7786 19.8994 28.5301 19.2166 28.0658C18.5337 27.6016 18.0089 26.9433 17.7112 26.1777C17.4569 25.2475 17.3613 24.2818 17.4282 23.3203Z" fill="#FF6C37"/>
<path d="M28.064 18.139C28.064 18.1181 28.0683 18.0973 28.0766 18.0781C28.085 18.0588 28.0973 18.0414 28.1127 18.027C28.1281 18.0126 28.1463 18.0015 28.1662 17.9943C28.186 17.9871 28.2072 17.9841 28.2284 17.9853H34.975C34.9958 17.984 35.0165 17.9871 35.036 17.9943C35.0554 18.0016 35.0731 18.0128 35.0878 18.0274C35.1025 18.0419 35.1138 18.0594 35.1212 18.0787C35.1285 18.0979 35.1316 18.1185 35.1302 18.139V19.5135C35.1316 19.534 35.1285 19.5546 35.1212 19.5738C35.1138 19.5931 35.1025 19.6106 35.0878 19.6251C35.0731 19.6397 35.0554 19.651 35.036 19.6582C35.0165 19.6655 34.9958 19.6685 34.975 19.6672H30.036C29.9721 19.6672 29.9356 19.6672 29.9356 19.7576V22.3618C29.9341 22.3753 29.9357 22.3888 29.9403 22.4015C29.9448 22.4142 29.9522 22.4258 29.9618 22.4353C29.9714 22.4449 29.9831 22.4521 29.9959 22.4566C30.0088 22.4611 30.0224 22.4627 30.036 22.4613H34.199C34.2198 22.46 34.2405 22.463 34.26 22.4703C34.2794 22.4776 34.2971 22.4888 34.3118 22.5034C34.3264 22.5179 34.3378 22.5354 34.3452 22.5547C34.3525 22.5739 34.3556 22.5945 34.3542 22.615V23.9443C34.3555 23.9652 34.3524 23.9862 34.3451 24.0059C34.3379 24.0256 34.3267 24.0436 34.3121 24.0589C34.2976 24.0741 34.2801 24.0862 34.2606 24.0945C34.2412 24.1028 34.2202 24.1071 34.199 24.107H30.036C29.9721 24.107 29.9356 24.107 29.9356 24.1974V26.9102C29.9356 26.9735 29.9356 27.0006 30.036 27.0006H34.975C34.9958 26.9993 35.0165 27.0023 35.036 27.0096C35.0554 27.0168 35.0731 27.0281 35.0878 27.0427C35.1025 27.0572 35.1138 27.0747 35.1212 27.094C35.1285 27.1132 35.1316 27.1338 35.1302 27.1543V28.5107C35.1316 28.5312 35.1285 28.5518 35.1212 28.571C35.1138 28.5903 35.1025 28.6078 35.0878 28.6223C35.0731 28.6369 35.0554 28.6481 35.036 28.6554C35.0165 28.6627 34.9958 28.6657 34.975 28.6644H28.2284C28.2072 28.6656 28.186 28.6626 28.1662 28.6554C28.1463 28.6482 28.1281 28.6371 28.1127 28.6227C28.0973 28.6083 28.085 28.5909 28.0766 28.5717C28.0683 28.5524 28.064 28.5316 28.064 28.5107V18.139Z" fill="#FF6C37"/>
<path d="M37.4857 18.1391C37.4857 18.1181 37.49 18.0973 37.4983 18.0781C37.5067 18.0588 37.519 18.0414 37.5343 18.027C37.5497 18.0126 37.568 18.0015 37.5879 17.9943C37.6078 17.9872 37.6289 17.9841 37.6501 17.9853H39.1016C39.1575 17.9812 39.2134 17.9936 39.2621 18.021C39.3109 18.0484 39.3504 18.0895 39.3755 18.1391L43.7668 25.4996H43.8307V18.1391C43.8294 18.1185 43.8325 18.0979 43.8398 18.0787C43.8471 18.0594 43.8585 18.042 43.8732 18.0274C43.8879 18.0129 43.9055 18.0016 43.925 17.9943C43.9444 17.9871 43.9652 17.984 43.9859 17.9853H45.3645C45.3852 17.984 45.406 17.9871 45.4254 17.9943C45.4448 18.0016 45.4625 18.0129 45.4772 18.0274C45.4919 18.042 45.5033 18.0594 45.5106 18.0787C45.5179 18.0979 45.521 18.1185 45.5197 18.1391V28.5016C45.521 28.5222 45.5179 28.5427 45.5106 28.562C45.5033 28.5812 45.4919 28.5987 45.4772 28.6133C45.4625 28.6278 45.4448 28.6391 45.4254 28.6464C45.406 28.6536 45.3852 28.6567 45.3645 28.6554H43.922C43.8674 28.6588 43.813 28.6461 43.7658 28.6187C43.7187 28.5913 43.6808 28.5505 43.6572 28.5016L39.2477 21.1502H39.1838V28.5016C39.1851 28.5222 39.182 28.5427 39.1747 28.562C39.1674 28.5812 39.156 28.5987 39.1413 28.6133C39.1266 28.6278 39.109 28.6391 39.0895 28.6464C39.0701 28.6536 39.0493 28.6567 39.0286 28.6554H37.6501C37.6289 28.6566 37.6078 28.6535 37.5879 28.6464C37.568 28.6392 37.5497 28.6281 37.5343 28.6137C37.519 28.5993 37.5067 28.5819 37.4983 28.5626C37.49 28.5434 37.4857 28.5226 37.4857 28.5016V18.1391Z" fill="#FF6C37"/>
<path d="M47.9572 23.3203C47.8808 22.3498 47.9766 21.3736 48.2403 20.4358C48.468 19.641 48.9635 18.9474 49.6445 18.4704C50.3255 17.9933 51.1509 17.7615 51.9833 17.8135C52.7549 17.7808 53.5181 17.9823 54.1708 18.3912C54.8235 18.8001 55.3344 19.3967 55.6351 20.1012C55.644 20.1188 55.6488 20.1381 55.6494 20.1578C55.6499 20.1774 55.6462 20.1969 55.6383 20.215C55.6305 20.2331 55.6189 20.2492 55.6041 20.2624C55.5894 20.2755 55.5719 20.2853 55.553 20.2911L54.2018 20.9331C54.1837 20.9436 54.1634 20.9497 54.1425 20.9512C54.1215 20.9526 54.1006 20.9493 54.0812 20.9414C54.0618 20.9335 54.0444 20.9214 54.0305 20.9058C54.0166 20.8903 54.0065 20.8718 54.001 20.8518C53.8503 20.4454 53.5763 20.0952 53.2167 19.8491C52.8572 19.603 52.4295 19.4732 51.9925 19.4773C51.5555 19.4571 51.1247 19.5861 50.7724 19.8429C50.42 20.0998 50.1675 20.4687 50.057 20.8879C49.8612 21.6832 49.7965 22.5046 49.8653 23.3203C49.7971 24.1361 49.8618 24.9574 50.057 25.7527C50.1675 26.172 50.42 26.5409 50.7724 26.7977C51.1247 27.0545 51.5555 27.1836 51.9925 27.1634C52.4306 27.1668 52.8591 27.0357 53.2188 26.7879C53.5785 26.5401 53.8518 26.1879 54.001 25.7799C54.0075 25.7606 54.0184 25.7431 54.0328 25.7286C54.0471 25.714 54.0646 25.7029 54.0839 25.6959C54.1031 25.689 54.1237 25.6864 54.1442 25.6884C54.1646 25.6904 54.1843 25.697 54.2018 25.7075L55.553 26.3495C55.5719 26.3553 55.5894 26.3652 55.6041 26.3783C55.6189 26.3915 55.6305 26.4076 55.6383 26.4257C55.6462 26.4437 55.6499 26.4633 55.6494 26.4829C55.6488 26.5025 55.644 26.5218 55.6351 26.5394C55.3344 27.2439 54.8235 27.8406 54.1708 28.2495C53.5181 28.6583 52.7549 28.8599 51.9833 28.8272C51.1509 28.8792 50.3255 28.6474 49.6445 28.1703C48.9635 27.6932 48.468 26.9996 48.2403 26.2049C47.9766 25.2671 47.8808 24.2908 47.9572 23.3203Z" fill="#FF6C37"/>
<path d="M60.0721 28.6554C60.0513 28.6567 60.0305 28.6536 60.0111 28.6464C59.9917 28.6391 59.974 28.6278 59.9593 28.6133C59.9446 28.5987 59.9332 28.5813 59.9259 28.562C59.9186 28.5427 59.9155 28.5222 59.9169 28.5016V24.2969L56.7946 18.1391C56.7946 18.0667 56.7946 17.9853 56.9224 17.9853H58.52C58.5683 17.9847 58.6155 17.9993 58.6548 18.0269C58.6942 18.0545 58.7237 18.0938 58.7391 18.1391L60.8481 22.2805L62.9752 18.1391C62.9879 18.0921 63.0167 18.0511 63.0567 18.023C63.0968 17.9949 63.1454 17.9816 63.1943 17.9853H64.7281C64.8559 17.9853 64.8924 18.0667 64.8559 18.1391L61.7428 24.2969V28.5016C61.7428 28.5226 61.7385 28.5434 61.7301 28.5626C61.7218 28.5819 61.7095 28.5993 61.6941 28.6137C61.6787 28.6281 61.6605 28.6392 61.6406 28.6464C61.6207 28.6535 61.5996 28.6566 61.5784 28.6554H60.0721Z" fill="#FF6C37"/>
</g>
<defs>
<clipPath id="clip0_12_32">
<rect width="71" height="61" fill="white"/>
</clipPath>
</defs>
</svg>
