<svg width="238" height="202" viewBox="0 0 238 202" fill="none" xmlns="http://www.w3.org/2000/svg">
<path d="M118.918 200.988H221.711C225.282 200.988 228.854 201.003 232.425 200.979C233.442 200.973 234.346 200.637 235.14 200.035C236.536 198.982 237 197.611 237 196.051C237 133.459 237 70.8673 236.99 8.27556C236.99 7.02378 236.797 5.77506 236.756 4.52023C236.728 3.68368 236.247 3.06085 235.677 2.48076C234.532 1.31447 233.03 1 231.342 1C156.446 1.01221 81.554 1.00916 6.65821 1.01221C6.19418 1.01221 5.71639 0.987788 5.2661 1.06412C4.22803 1.23814 3.28964 1.60452 2.5128 2.2762C1.30287 3.32342 1.01069 4.66984 1.01069 6.06511C0.996945 42.9589 1.00038 79.8526 1.00038 116.743C1.00038 143.177 1.00038 169.611 1.01413 196.048C1.01413 196.79 1.05538 197.605 1.3888 198.258C2.28938 200.014 3.80524 201 6.11168 201C43.7125 200.982 81.3168 200.988 118.918 200.988Z" fill="white"/>
<path d="M118.918 200.988H221.711C225.282 200.988 228.854 201.003 232.425 200.979C233.442 200.973 234.346 200.637 235.14 200.035C236.536 198.982 237 197.611 237 196.051C237 133.459 237 70.8673 236.99 8.27556C236.99 7.02378 236.797 5.77506 236.756 4.52023C236.728 3.68368 236.247 3.06085 235.677 2.48076C234.532 1.31447 233.03 1 231.342 1C156.446 1.01221 81.554 1.00916 6.65821 1.01221C6.19418 1.01221 5.71639 0.987788 5.2661 1.06412C4.22803 1.23814 3.28964 1.60452 2.5128 2.2762C1.30287 3.32342 1.01069 4.66984 1.01069 6.06511C0.996945 42.9589 1.00038 79.8526 1.00038 116.743C1.00038 143.177 1.00038 169.611 1.01413 196.048C1.01413 196.79 1.05538 197.605 1.3888 198.258C2.28938 200.014 3.80524 201 6.11168 201C43.7125 200.982 81.3168 200.988 118.918 200.988Z" stroke="#5F6368" stroke-width="1.2" stroke-miterlimit="10"/>
<path d="M87.6837 40.0097C96.6011 31.2082 109.586 26.5663 122.315 27.0314C129.776 27.5093 137.237 29.3695 143.615 33.1847C146.258 34.7693 148.901 36.4658 151 38.6964C148.991 40.9527 146.636 42.9033 144.505 45.0477C142.235 47.1405 140.118 49.3882 137.781 51.4034C134.123 48.2213 129.592 45.8142 124.648 45.1812C119.519 44.6042 114.103 44.8454 109.397 47.0673C104.17 49.3279 99.7609 53.2292 96.8663 57.9572C95.8685 59.5547 95.2167 61.3202 94.3897 62.9995C89.1714 59.3179 84.1689 55.3779 79 51.6359C81.0316 47.2567 84.1239 43.3512 87.6792 40.0054" fill="#EA4335"/>
<path d="M79.8091 50.999C84.9094 54.9757 89.8455 59.1629 94.9946 63.0755C94.2273 66.8829 93.0787 70.7818 93.7838 74.7035C93.9967 76.8589 94.6221 78.9411 94.999 81.069C90.9853 84.3363 86.9096 87.5214 82.9314 90.8345C81.9291 91.6628 80.8336 92.3675 79.7027 92.999C76.9751 87.3109 75.2366 81.0369 75.0592 74.6669C74.8951 70.4935 75.0326 66.2651 75.8974 62.1786C76.8288 58.3346 77.871 54.4403 79.8136 50.999" fill="#FBBC04"/>
<path d="M121.249 65.0225C133.885 65.0225 146.521 65.0225 159.157 65.0225C160.77 65.0312 162.396 64.9049 163.999 65.1618C166.79 78.5125 163.753 93.3088 154.624 103.842C153.63 104.996 152.671 106.246 151.296 106.999C146.248 103.394 141.424 99.5094 136.429 95.8343C140.806 92.6382 144.17 87.844 144.761 82.4793C136.877 82.34 128.989 82.5316 121.11 82.3922C120.891 77.8593 121.092 73.3089 121.016 68.7673C121.061 67.5219 120.846 66.2287 121.249 65.0225Z" fill="#4284F4"/>
<path d="M82.2772 90.7234C86.3152 87.4197 90.4568 84.2527 94.5263 80.999C95.5302 82.8856 96.1604 84.959 97.3309 86.7544C100.977 92.8196 106.951 97.4175 113.731 99.2722C118.471 100.393 123.45 100.247 128.19 99.1811C130.99 98.4565 133.547 97.0803 136.059 95.6768C141.078 99.5228 145.927 103.588 151 107.361C149.78 108.937 148.114 110.054 146.516 111.198C138.958 116.611 129.599 118.767 120.461 118.999C111.241 118.808 101.995 116.156 94.3868 110.797C87.8503 106.299 82.5023 100.051 79 92.8789C80.1479 92.25 81.2643 91.5482 82.2772 90.7234Z" fill="#34A853"/>
<path d="M125.031 145.064C127.816 144.979 130.607 144.979 133.392 145.064C135.569 145.081 137.535 146.359 138.738 148.032C139.73 149.472 139.779 151.303 139.523 152.958C139.297 154.648 137.954 155.955 136.561 156.899C134.041 158.382 131.003 157.701 128.213 157.868C127.952 160.659 128.195 163.472 128.105 166.272C127.073 166.358 126.04 166.358 125.013 166.272C125.013 159.201 124.972 152.131 125.031 145.06M128.236 148.01C127.997 150.295 128.06 152.607 128.186 154.901C130.124 154.913 132.081 155.046 134.005 154.819C136.633 153.966 137.296 150.373 135.182 148.705C133.126 147.448 130.53 148.173 128.236 148.006M171.652 150.763C171.697 149.446 171.522 148.104 171.837 146.814C172.838 146.792 173.843 146.797 174.848 146.861C174.938 148.152 174.848 149.442 174.938 150.733C175.98 151.265 177.35 150.857 178.526 151.024C178.581 151.929 178.581 152.838 178.544 153.751C177.332 153.803 176.115 153.829 174.911 153.983C174.893 156.732 174.88 159.484 174.92 162.237C174.884 162.949 175.236 163.802 176.043 163.974C176.935 164.055 177.837 163.892 178.734 163.862C178.842 164.793 178.734 165.732 178.486 166.636C177.039 166.718 175.533 166.907 174.123 166.516C172.996 165.86 171.828 164.913 171.774 163.558C171.459 160.385 171.869 157.19 171.567 154.017C170.643 153.876 169.723 153.751 168.804 153.623C168.795 152.77 168.817 151.921 168.871 151.072C169.795 150.982 170.764 151.072 171.652 150.763ZM142.218 153.764C144.715 149.356 152.603 149.331 155.114 153.764C155.822 155.226 155.673 156.882 155.691 158.451C155.642 161.066 155.759 163.686 155.637 166.302C154.826 166.349 154.019 166.345 153.212 166.281C152.951 165.92 152.698 165.569 152.437 165.217C150.602 166.315 148.443 167.503 146.207 166.778C142.971 166.315 140.483 162.79 141.907 159.832C142.795 157.542 145.427 156.543 147.798 156.376C149.48 156.256 151.093 156.8 152.757 156.899C152.594 155.042 151.139 153.258 149.029 153.378C147.176 153.083 145.63 154.15 144.413 155.338C143.588 154.943 142.876 154.373 142.218 153.769M144.819 161.881C144.95 163.433 146.721 164.282 148.209 164.197C150.525 164.094 152.482 162.168 152.599 159.977C151.323 158.888 149.466 158.833 147.848 158.961C146.284 159.034 144.621 160.269 144.823 161.881M184.346 152.221C185.811 151.385 187.294 150.321 189.11 150.51C192.202 150.231 195.006 152.855 195.029 155.754C195.069 159.253 195.047 162.752 195.047 166.25C194.014 166.353 192.978 166.366 191.945 166.272C191.815 162.799 192.139 159.304 191.779 155.844C191.598 153.619 188.714 152.928 186.834 153.614C185.184 154.292 184.247 156.007 184.247 157.666C184.179 160.526 184.283 163.391 184.229 166.255C183.16 166.362 182.092 166.358 181.028 166.268C180.965 161.191 180.961 156.114 181.028 151.046C182.002 150.96 182.984 150.939 183.954 151.093C184.048 151.376 184.247 151.942 184.346 152.225M200.663 151.933C203.701 149.695 208.493 150.094 211.048 152.842C212.59 154.643 213.343 157.036 212.982 159.351C208.907 159.476 204.833 159.334 200.758 159.407C200.393 162.233 203.471 164.553 206.302 164.068C207.983 164.034 208.98 162.64 210.106 161.671C211.076 161.56 211.887 162.259 212.73 162.614C211.094 166.491 205.725 168.056 201.93 166.16C196.3 163.734 195.863 155.342 200.663 151.938M200.731 156.813C203.683 156.924 206.636 156.924 209.588 156.813C209.426 154.781 207.276 153.138 205.144 153.383C202.98 153.263 201.393 155.034 200.735 156.813M221.366 150.729C222.507 150.364 223.737 150.548 224.896 150.746C224.995 151.77 225.013 152.804 224.99 153.837C223.814 153.781 222.61 153.477 221.447 153.764C219.757 154.313 218.68 156.011 218.702 157.675C218.635 160.522 218.738 163.378 218.689 166.229C217.634 166.366 216.566 166.375 215.515 166.268C215.452 161.195 215.452 156.118 215.515 151.05C216.34 150.986 217.174 150.964 218.008 150.986C218.274 151.372 218.554 151.749 218.847 152.122C219.689 151.655 220.483 151.102 221.371 150.724M161.456 152.551C162.61 151.933 163.683 150.977 165.076 150.964C165.811 150.917 166.541 150.964 167.276 150.999C167.33 151.929 167.334 152.868 167.307 153.807C165.901 154.017 164.246 153.696 163.102 154.686C162.344 155.385 161.619 156.281 161.596 157.336C161.474 160.428 161.664 163.523 161.528 166.619C160.514 166.701 159.491 166.709 158.481 166.654C158.396 161.568 158.414 156.47 158.472 151.385C159.351 151.325 160.239 151.307 161.118 151.449C161.204 151.728 161.366 152.281 161.452 152.555" fill="#606469"/>
<path d="M125.031 145.064C127.816 144.979 130.607 144.979 133.392 145.064C135.569 145.081 137.535 146.359 138.738 148.032C139.73 149.472 139.779 151.303 139.523 152.958C139.297 154.648 137.954 155.955 136.561 156.899C134.041 158.382 131.003 157.701 128.213 157.868C127.952 160.659 128.195 163.472 128.105 166.272C127.073 166.358 126.04 166.358 125.013 166.272C125.013 159.201 124.972 152.131 125.031 145.06M128.236 148.01C127.997 150.295 128.06 152.607 128.186 154.901C130.124 154.913 132.081 155.046 134.005 154.819C136.633 153.966 137.296 150.373 135.182 148.705C133.126 147.448 130.53 148.173 128.236 148.006M142.218 153.764C144.715 149.356 152.603 149.331 155.114 153.764C155.822 155.226 155.673 156.882 155.691 158.451C155.642 161.066 155.759 163.686 155.637 166.302C154.826 166.349 154.019 166.345 153.212 166.281C152.951 165.92 152.698 165.569 152.437 165.217C150.602 166.315 148.443 167.503 146.207 166.778C142.971 166.315 140.483 162.79 141.907 159.832C142.795 157.542 145.427 156.543 147.798 156.376C149.48 156.256 151.093 156.8 152.757 156.899C152.594 155.042 151.139 153.258 149.029 153.378C147.176 153.083 145.63 154.15 144.413 155.338C143.588 154.943 142.876 154.373 142.218 153.769M144.819 161.881C144.95 163.433 146.721 164.282 148.209 164.197C150.525 164.094 152.482 162.168 152.599 159.977C151.323 158.888 149.466 158.833 147.848 158.961C146.284 159.034 144.621 160.269 144.823 161.881M184.346 152.221C185.811 151.385 187.294 150.321 189.11 150.51C192.202 150.231 195.006 152.855 195.029 155.754C195.069 159.253 195.047 162.752 195.047 166.25C194.014 166.353 192.978 166.366 191.945 166.272C191.815 162.799 192.139 159.304 191.779 155.844C191.598 153.619 188.714 152.928 186.834 153.614C185.184 154.292 184.247 156.007 184.247 157.666C184.179 160.526 184.283 163.391 184.229 166.255C183.16 166.362 182.092 166.358 181.028 166.268C180.965 161.191 180.961 156.114 181.028 151.046C182.002 150.96 182.984 150.939 183.954 151.093C184.048 151.376 184.247 151.942 184.346 152.225M200.663 151.933C203.701 149.695 208.493 150.094 211.048 152.842C212.59 154.643 213.343 157.036 212.982 159.351C208.907 159.476 204.833 159.334 200.758 159.407C200.393 162.233 203.471 164.553 206.302 164.068C207.983 164.034 208.98 162.64 210.106 161.671C211.076 161.56 211.887 162.259 212.73 162.614C211.094 166.491 205.725 168.056 201.93 166.16C196.3 163.734 195.863 155.342 200.663 151.938M200.731 156.813C203.683 156.924 206.636 156.924 209.588 156.813C209.426 154.781 207.276 153.138 205.144 153.383C202.98 153.263 201.393 155.034 200.735 156.813M221.366 150.729C222.507 150.364 223.737 150.548 224.896 150.746C224.995 151.77 225.013 152.804 224.99 153.837C223.814 153.781 222.61 153.477 221.447 153.764C219.757 154.313 218.68 156.011 218.702 157.675C218.635 160.522 218.738 163.378 218.689 166.229C217.634 166.366 216.566 166.375 215.515 166.268C215.452 161.195 215.452 156.118 215.515 151.05C216.34 150.986 217.174 150.964 218.008 150.986C218.274 151.372 218.554 151.749 218.847 152.122C219.689 151.655 220.483 151.102 221.371 150.724M171.652 150.763C171.697 149.446 171.522 148.104 171.837 146.814C172.838 146.792 173.843 146.797 174.848 146.861C174.938 148.152 174.848 149.442 174.938 150.733C175.98 151.265 177.35 150.857 178.526 151.024C178.581 151.929 178.581 152.838 178.544 153.751C177.332 153.803 176.115 153.829 174.911 153.983C174.893 156.732 174.88 159.484 174.92 162.237C174.884 162.949 175.236 163.802 176.043 163.974C176.935 164.055 177.837 163.892 178.734 163.862C178.842 164.793 178.734 165.732 178.486 166.636C177.039 166.718 175.533 166.907 174.123 166.516C172.996 165.86 171.828 164.913 171.774 163.558C171.459 160.385 171.869 157.19 171.567 154.017C170.643 153.876 169.723 153.751 168.804 153.623C168.795 152.77 168.817 151.921 168.871 151.072C169.795 150.982 170.764 151.072 171.652 150.763ZM161.456 152.551C162.61 151.933 163.683 150.977 165.076 150.964C165.811 150.917 166.541 150.964 167.276 150.999C167.33 151.929 167.334 152.868 167.307 153.807C165.901 154.017 164.246 153.696 163.102 154.686C162.344 155.385 161.619 156.281 161.596 157.336C161.474 160.428 161.664 163.523 161.528 166.619C160.514 166.701 159.491 166.709 158.481 166.654C158.396 161.568 158.414 156.47 158.472 151.385C159.351 151.325 160.239 151.307 161.118 151.449C161.204 151.728 161.366 152.281 161.452 152.555L161.456 152.551Z" stroke="#5F6368" stroke-width="0.18" stroke-miterlimit="10"/>
<path d="M19.7912 145.228C23.0716 142.649 27.7502 142.473 31.569 143.86C32.9355 144.504 34.492 145.273 35.139 146.728C34.492 147.435 33.8133 148.114 33.0758 148.727C31.9672 147.835 30.8632 146.876 29.4876 146.426C26.1032 145.431 22.0807 146.453 19.9993 149.411C18.2347 151.455 18.1623 154.332 18.5288 156.871C19.2889 160.842 23.3838 163.76 27.4063 163.404C31.0351 163.436 34.6187 160.419 34.6096 156.696C31.9898 156.502 29.3655 156.709 26.7411 156.592C26.3339 155.773 26.3656 154.845 26.5375 153.976C30.2161 153.607 33.9445 153.859 37.6457 153.846C38.0348 157.114 37.5326 160.797 35.044 163.175C30.9853 167.479 23.6146 167.533 19.1894 163.764C16.3886 161.387 14.7642 157.668 15.0266 154.008C15.2122 150.564 17.0401 147.295 19.7957 145.233M95.6119 143.63C96.6571 143.441 97.7249 143.446 98.7883 143.504C98.9285 150.888 98.8154 158.276 98.8425 165.664C97.8154 166.047 96.7024 165.84 95.6391 165.804C95.5576 158.411 95.6119 151.018 95.6119 143.63ZM46.0707 149.474C48.3829 148.979 50.9439 149.244 52.9031 150.658C56.7219 153.112 57.74 158.722 55.3555 162.499C53.9438 165.16 50.8353 166.538 47.9123 166.56C45.9395 166.322 43.8944 165.678 42.4736 164.242C40.08 161.981 39.3244 158.312 40.2655 155.214C40.908 152.383 43.3333 150.253 46.0753 149.474M46.4599 152.536C44.5685 153.161 43.3016 155.066 43.2021 157.011C43.0075 158.965 43.3921 161.189 45.0753 162.436C47.6363 164.701 52.247 163.269 53.0841 159.96C53.5003 157.871 53.5546 155.278 51.7945 153.751C50.5231 152.225 48.2743 151.959 46.4644 152.531M64.2239 149.515C66.3415 149.042 68.7124 149.105 70.6038 150.257C75.0606 152.536 76.2732 158.956 73.4091 162.913C71.934 165.246 69.1423 166.493 66.441 166.56C63.88 166.367 61.1833 165.268 59.7625 163.035C58.3237 161.157 58.0884 158.668 58.3327 156.39C58.6359 153.175 61.1878 150.456 64.2239 149.51M64.9524 152.482C60.7127 153.778 60.1743 160.28 63.6991 162.666C65.4365 163.85 68.0835 163.854 69.6717 162.4C72.2689 160.388 72.3775 156.173 70.2509 153.787C68.9749 152.306 66.7713 151.959 64.9569 152.477M76.866 155.151C77.7076 151.793 80.9518 148.898 84.5625 149.253C86.3272 149.127 87.7434 150.276 89.1732 151.104C89.3135 150.658 89.4583 150.212 89.5985 149.776C90.5397 149.717 91.4808 149.713 92.422 149.767C92.526 154.913 92.4355 160.063 92.4672 165.214C92.5306 167.744 91.4673 170.468 89.2502 171.855C87.3 173.102 84.8566 173.125 82.626 172.872C80.1962 172.557 78.0107 170.743 77.2868 168.406C78.0424 167.839 78.9157 167.105 79.9338 167.299C80.8025 168.177 81.531 169.253 82.6712 169.82C84.73 170.819 87.395 169.982 88.6891 168.145C89.4266 167.073 89.3678 165.727 89.3859 164.485C87.6936 165.556 85.834 166.754 83.7345 166.511C81.6441 166.178 79.427 165.313 78.2415 163.467C76.4904 161.117 76.1375 157.938 76.8705 155.151M82.7074 152.576C79.1917 154.21 78.7392 159.42 81.2052 162.139C82.5898 163.638 85.0241 163.917 86.7932 162.967C90.2637 160.847 90.3406 155.048 86.929 152.842C85.653 152.139 84.0558 152.063 82.7029 152.576M103.793 151.514C105.263 149.992 107.372 149.069 109.516 149.249C112.195 149.123 114.697 150.802 116.046 153.031C116.973 154.638 117.027 156.561 116.991 158.366C112.96 158.857 108.851 158.384 104.793 158.591C104.44 161.639 107.716 164.147 110.625 163.422C112.281 163.256 113.213 161.788 114.209 160.653C115.059 161.004 115.887 161.401 116.715 161.797C116.159 164.147 113.779 165.696 111.53 166.268C109.141 166.997 106.575 166.205 104.553 164.89C102.372 163.314 101.548 160.532 101.286 157.988C101.462 155.683 102.055 153.175 103.802 151.523M107.313 152.644C105.915 153.134 105.286 154.616 104.86 155.912C107.797 155.944 110.738 155.966 113.679 155.894C113.362 154.944 113.114 153.882 112.299 153.22C110.937 152.081 108.91 152.013 107.313 152.648" fill="#606469"/>
<path d="M19.7912 145.228C23.0716 142.649 27.7502 142.473 31.569 143.86C32.9355 144.504 34.492 145.273 35.139 146.728C34.492 147.435 33.8133 148.114 33.0758 148.727C31.9672 147.835 30.8632 146.876 29.4876 146.426C26.1032 145.431 22.0807 146.453 19.9993 149.411C18.2347 151.455 18.1623 154.332 18.5288 156.871C19.2889 160.842 23.3838 163.76 27.4063 163.404C31.0351 163.436 34.6187 160.419 34.6096 156.696C31.9898 156.502 29.3655 156.709 26.7411 156.592C26.3339 155.773 26.3656 154.845 26.5375 153.976C30.2161 153.607 33.9445 153.859 37.6457 153.846C38.0348 157.114 37.5326 160.797 35.044 163.175C30.9853 167.479 23.6146 167.533 19.1894 163.764C16.3886 161.387 14.7642 157.668 15.0266 154.008C15.2122 150.564 17.0401 147.295 19.7957 145.233M46.0707 149.474C48.3829 148.979 50.9439 149.244 52.9031 150.658C56.7219 153.112 57.74 158.722 55.3555 162.499C53.9438 165.16 50.8353 166.538 47.9123 166.56C45.9395 166.322 43.8944 165.678 42.4736 164.242C40.08 161.981 39.3244 158.312 40.2655 155.214C40.908 152.383 43.3333 150.253 46.0753 149.474M46.4599 152.536C44.5685 153.161 43.3016 155.066 43.2021 157.011C43.0075 158.965 43.3921 161.189 45.0753 162.436C47.6363 164.701 52.247 163.269 53.0841 159.96C53.5003 157.871 53.5546 155.278 51.7945 153.751C50.5231 152.225 48.2743 151.959 46.4644 152.531M64.2239 149.515C66.3415 149.042 68.7124 149.105 70.6038 150.257C75.0606 152.536 76.2732 158.956 73.4091 162.913C71.934 165.246 69.1423 166.493 66.441 166.56C63.88 166.367 61.1833 165.268 59.7625 163.035C58.3237 161.157 58.0884 158.668 58.3327 156.39C58.6359 153.175 61.1878 150.456 64.2239 149.51M64.9524 152.482C60.7127 153.778 60.1743 160.28 63.6991 162.666C65.4365 163.85 68.0835 163.854 69.6717 162.4C72.2689 160.388 72.3775 156.173 70.2509 153.787C68.9749 152.306 66.7713 151.959 64.9569 152.477M76.866 155.151C77.7076 151.793 80.9518 148.898 84.5625 149.253C86.3272 149.127 87.7434 150.276 89.1732 151.104C89.3135 150.658 89.4583 150.212 89.5985 149.776C90.5397 149.717 91.4808 149.713 92.422 149.767C92.526 154.913 92.4355 160.063 92.4672 165.214C92.5306 167.744 91.4673 170.468 89.2502 171.855C87.3 173.102 84.8566 173.125 82.626 172.872C80.1962 172.557 78.0107 170.743 77.2868 168.406C78.0424 167.839 78.9157 167.105 79.9338 167.299C80.8025 168.177 81.531 169.253 82.6712 169.82C84.73 170.819 87.395 169.982 88.6891 168.145C89.4266 167.073 89.3678 165.727 89.3859 164.485C87.6936 165.556 85.834 166.754 83.7345 166.511C81.6441 166.178 79.427 165.313 78.2415 163.467C76.4904 161.117 76.1375 157.938 76.8705 155.151M82.7074 152.576C79.1917 154.21 78.7392 159.42 81.2052 162.139C82.5898 163.638 85.0241 163.917 86.7932 162.967C90.2637 160.847 90.3406 155.048 86.929 152.842C85.653 152.139 84.0558 152.063 82.7029 152.576M103.793 151.514C105.263 149.992 107.372 149.069 109.516 149.249C112.195 149.123 114.697 150.802 116.046 153.031C116.973 154.638 117.027 156.561 116.991 158.366C112.96 158.857 108.851 158.384 104.793 158.591C104.44 161.639 107.716 164.147 110.625 163.422C112.281 163.256 113.213 161.788 114.209 160.653C115.059 161.004 115.887 161.401 116.715 161.797C116.159 164.147 113.779 165.696 111.53 166.268C109.141 166.997 106.575 166.205 104.553 164.89C102.372 163.314 101.548 160.532 101.286 157.988C101.462 155.683 102.055 153.175 103.802 151.523M107.313 152.644C105.915 153.134 105.286 154.616 104.86 155.912C107.797 155.944 110.738 155.966 113.679 155.894C113.362 154.944 113.114 153.882 112.299 153.22C110.937 152.081 108.91 152.013 107.313 152.648M95.6119 143.63C96.6571 143.441 97.7249 143.446 98.7883 143.504C98.9285 150.888 98.8154 158.276 98.8425 165.664C97.8154 166.047 96.7024 165.84 95.6391 165.804C95.5576 158.411 95.6119 151.018 95.6119 143.63Z" stroke="#5F6368" stroke-width="0.6" stroke-miterlimit="10"/>
</svg>
