<svg width="164" height="29" viewBox="0 0 164 29" fill="none" xmlns="http://www.w3.org/2000/svg">
<path fill-rule="evenodd" clip-rule="evenodd" d="M14.8125 23.3907C9.84145 23.3907 5.79772 19.347 5.79772 14.3759V6.91468C5.79772 6.00867 5.43532 5.13864 4.79446 4.49777C4.15359 3.85691 3.28489 3.49583 2.37755 3.4945H0.822678V0.384766H2.37755C5.97493 0.384766 8.90613 3.31463 8.90613 6.91335V14.3746C8.90613 15.9401 9.52967 17.4417 10.6382 18.5502C11.7454 19.6574 13.247 20.281 14.8125 20.2823C16.3794 20.2823 17.8809 19.6587 18.9881 18.5502C20.0953 17.443 20.7189 15.9414 20.7202 14.3746V6.91335C20.7202 3.31463 23.6487 0.384766 27.2488 0.384766H28.8023V3.4945H27.2488C26.3414 3.4945 25.4727 3.85557 24.8305 4.49644C24.1897 5.13731 23.8286 6.00601 23.8273 6.91335V14.3746C23.8273 19.347 19.7849 23.3894 14.8125 23.3894V23.3907ZM27.7204 5.36114H28.8023V14.3759C28.8023 22.0916 22.5269 28.3657 14.8125 28.3657C7.09811 28.3657 0.822678 22.0916 0.822678 14.3759V5.36114H1.90455C3.03573 5.36114 3.95107 6.27648 3.95107 7.40765V9.06645H3.93241V14.3772C3.93241 20.3782 8.8102 25.2573 14.8125 25.2573C20.8148 25.2573 25.6926 20.3782 25.6926 14.3772V9.06645H25.6726V7.40765C25.6726 6.27648 26.5879 5.36114 27.7204 5.36114Z" fill="url(#paint0_linear_575_267)"/>
<path fill-rule="evenodd" clip-rule="evenodd" d="M41.1333 15.4086V6.29391H45.7713V15.1688C45.7713 17.2673 47.0863 18.7715 48.949 18.7715C50.8116 18.7715 52.1293 17.2673 52.1293 15.1688V6.29391H56.7673V15.4086C56.7673 19.8454 53.5403 22.9698 48.949 22.9698C44.3577 22.9698 41.1333 19.8454 41.1333 15.4086ZM58.2196 20.2038L60.8004 17.126C62.4738 18.4384 64.2912 19.1312 66.2271 19.1312C67.4955 19.1312 68.1643 18.7009 68.1643 17.9841C68.1643 17.1993 67.5914 17.0794 65.3197 16.5544C61.7557 15.7417 59.0083 14.8117 59.0083 11.4009C59.0083 8.13124 61.5891 6.00879 65.4863 6.00879C68.3309 6.00879 70.5533 6.77223 72.3719 8.22717L70.0536 11.4955C68.5227 10.3989 66.8493 9.85133 65.3664 9.85133C64.2445 9.85133 63.6943 10.303 63.6943 10.9239C63.6943 11.7606 64.2672 12.0231 66.6095 12.5214C70.4334 13.3341 72.8249 14.36 72.8249 17.4844C72.8249 20.9446 70.1709 22.9711 66.0605 22.9711C63.096 22.9711 60.2981 22.0398 58.2196 20.2038ZM79.5374 10.4229V12.2589H87.3557V16.3866H79.5374V18.5583H88.1205V22.686H74.8994V6.29658H88.1205V10.4242H79.5374V10.4229ZM95.0941 13.5473H97.9387C99.0392 13.5473 99.828 12.9038 99.828 12.0204C99.828 11.1371 99.0392 10.4935 97.9387 10.4935H95.0941V13.5473ZM99.9945 22.6847L96.5277 17.7442H95.0941V22.6847H90.4561V6.29525H98.3211C102.002 6.29525 104.61 8.6562 104.61 12.0204C104.61 14.3587 103.365 16.1974 101.359 17.1274L105.279 22.686L99.9945 22.6847ZM106.564 6.29525H108.667L113.209 19.5603L117.56 6.29525H119.64L123.989 19.5603L128.531 6.29525H130.636L125.018 22.6847H123.178L118.612 8.72814L114.022 22.6847H112.18L106.564 6.29525ZM143.394 17.198L139.594 8.58558L135.767 17.198H143.394ZM144.158 18.9647H135.002L133.353 22.6847H131.322L138.565 6.29525H140.596L144.158 14.3574L144.417 14.9423L145.415 17.1993L147.838 22.686H145.806L144.158 18.9647ZM154.813 16.0042L148.193 6.29525H150.511L155.794 14.2388L161.125 6.29525H163.371L156.773 16.0042V22.6847H154.813V16.0042Z" fill="white"/>
<defs>
<linearGradient id="paint0_linear_575_267" x1="8.49576" y1="1.04162" x2="26.1229" y2="25.1041" gradientUnits="userSpaceOnUse">
<stop stop-color="#03BCFF"/>
<stop offset="0.51" stop-color="#024FFF"/>
<stop offset="1" stop-color="#F900FF"/>
</linearGradient>
</defs>
</svg>
