<svg width="217" height="37" viewBox="0 0 217 37" fill="none" xmlns="http://www.w3.org/2000/svg">
<path d="M128.863 35.6058L131.862 19.6144C132.238 17.608 132.519 15.8277 132.707 14.4505H133.99L133.521 17.4857H133.583C134.93 15.4519 136.807 14.1377 138.81 14.1377C141.659 14.1377 142.722 16.5783 142.722 19.0198C142.722 24.0897 139.248 29.7817 134.46 29.7817C132.989 29.7817 132.018 29.4378 131.456 29.125H131.393L130.207 35.6004L128.863 35.6058ZM131.679 27.7506C132.367 28.2823 133.369 28.5951 134.589 28.5951C138.564 28.5951 141.318 22.9625 141.318 19.1101C141.318 17.3262 140.63 15.3543 138.408 15.3543C136.279 15.3543 133.494 18.0457 132.649 22.584L131.679 27.7506Z" fill="white"/>
<path d="M153.078 29.4715C153.046 28.564 153.234 27.1559 153.453 25.4349H153.393C151.671 28.7519 149.762 29.7843 147.79 29.7843C145.51 29.7843 144.129 27.9065 144.129 25.2151C144.129 20.1141 147.79 14.1367 153.613 14.1367C154.678 14.1367 155.867 14.3246 156.648 14.5745L155.053 22.6806C154.521 25.4659 154.333 27.8791 154.396 29.4715H153.078ZM155.085 15.5759C154.739 15.4509 154.208 15.357 153.269 15.357C148.95 15.357 145.57 20.1771 145.539 24.9023C145.507 26.8431 146.071 28.5951 148.105 28.5951C150.546 28.5951 153.303 24.9342 154.02 21.0526L155.085 15.5759Z" fill="white"/>
<path d="M157.926 29.4715L159.836 19.3626C160.211 17.4538 160.431 15.7638 160.555 14.4495H161.807C161.682 15.42 161.557 16.4214 161.369 17.7046H161.432C162.37 15.6981 163.842 14.1367 165.719 14.1367C165.908 14.1386 166.097 14.1593 166.282 14.1988L166.031 15.6078C165.857 15.5673 165.678 15.5462 165.499 15.5449C163.528 15.5449 161.337 18.5181 160.711 21.8378L159.302 29.4742L157.926 29.4715Z" fill="white"/>
<path d="M171.982 11.1323L171.325 14.4502H174.861L174.611 15.6084H171.074L169.415 24.559C169.228 25.5623 169.103 26.343 169.103 27.1565C169.103 28.033 169.509 28.5647 170.449 28.5647C170.949 28.5647 171.262 28.5337 171.543 28.4397L171.634 29.5342C171.157 29.6772 170.661 29.7509 170.163 29.7531C168.379 29.7531 167.691 28.5674 167.691 27.3125C167.691 26.498 167.782 25.7155 168.035 24.5581L169.725 15.6075H167.566L167.785 14.4493H169.973L170.474 11.7579L171.982 11.1323Z" fill="white"/>
<path d="M174.52 29.4715L176.527 18.8619C176.83 17.4038 177.061 15.9311 177.216 14.4495H178.467L178.057 17.5167H178.12C179.434 15.3278 181.312 14.1367 183.346 14.1367C184.817 14.1367 186.695 15.0752 186.695 17.9234C186.695 18.674 186.57 19.4256 186.413 20.2391L184.692 29.4715H183.346L185.099 20.2391C185.239 19.5176 185.311 18.7849 185.318 18.0502C185.318 16.4852 184.692 15.3588 182.845 15.3588C180.839 15.3588 178.026 17.8624 177.373 21.4931L175.902 29.4733L174.52 29.4715Z" fill="white"/>
<path d="M197.704 28.6269C196.922 29.1277 195.481 29.7533 193.604 29.7533C190.099 29.7533 188.879 26.999 188.879 24.1197C188.879 19.8013 191.883 14.1367 196.202 14.1367C198.675 14.1367 199.707 15.7638 199.707 17.42C199.707 21.2377 195.329 22.3021 190.412 22.2711C190.256 22.9596 190.229 24.9314 190.537 25.9949C191.069 27.7168 192.227 28.5303 193.821 28.5303C195.479 28.5303 196.606 27.9356 197.295 27.5271L197.704 28.6269ZM195.951 15.357C193.636 15.357 191.539 17.8605 190.632 21.0845C194.543 21.1155 198.299 20.458 198.299 17.4848C198.299 16.0766 197.359 15.357 195.951 15.357Z" fill="white"/>
<path d="M200.457 29.4715L202.366 19.3626C202.742 17.4538 202.961 15.7638 203.086 14.4495H204.338C204.212 15.42 204.087 16.4214 203.9 17.7046H203.963C204.901 15.6981 206.372 14.1367 208.249 14.1367C208.439 14.1386 208.627 14.1593 208.812 14.1988L208.562 15.6078C208.388 15.5673 208.209 15.5462 208.03 15.5449C206.058 15.5449 203.868 18.5181 203.242 21.8378L201.833 29.4742L200.457 29.4715Z" fill="white"/>
<path d="M208.188 27.7193C208.98 28.2384 209.903 28.5206 210.849 28.5329C212.821 28.5329 214.132 27.1247 214.132 25.432C214.132 23.929 213.506 23.0215 212.098 22.114C210.627 21.1437 209.812 19.7984 209.812 18.4212C209.812 16.0737 211.691 14.1348 214.32 14.1348C215.352 14.1348 216.386 14.4786 216.823 14.8233L216.322 15.9825C215.852 15.7007 215.039 15.3569 214.162 15.3569C212.347 15.3569 211.158 16.6091 211.158 18.1732C211.158 19.5823 211.94 20.362 213.193 21.1829C214.632 22.1533 215.508 23.5295 215.508 25.0325C215.508 28.0677 213.286 29.7577 210.72 29.7577C209.374 29.7577 208.185 29.257 207.684 28.8503L208.188 27.7193Z" fill="white"/>
<path d="M27.7799 7.1342C27.7682 7.05859 27.7314 6.98912 27.6755 6.93688C27.6196 6.88461 27.5478 6.85264 27.4717 6.846C27.344 6.83593 24.8433 6.79766 24.8433 6.79766C24.8433 6.79766 22.752 4.76839 22.5458 4.56591C22.3397 4.36346 21.9357 4.42274 21.7788 4.46836L20.7282 4.79393C20.5986 4.36758 20.4304 3.95393 20.2257 3.55814C19.4805 2.13812 18.3907 1.38569 17.0737 1.38387H17.0692C16.9779 1.38387 16.8867 1.39299 16.7955 1.4012C16.7573 1.35469 16.718 1.31 16.6761 1.26349C16.1033 0.649695 15.3664 0.351463 14.4872 0.376999C12.7826 0.420777 11.089 1.64745 9.71455 3.8363C8.74597 5.36849 8.01634 7.30201 7.80384 8.79135L4.45308 9.8292C3.46718 10.1384 3.43618 10.1694 3.30667 11.0988C3.20908 11.8019 0.628967 31.7561 0.628967 31.7561L22.2549 35.4954L31.6278 33.1661C31.6278 33.1661 27.8073 7.31204 27.7799 7.1342ZM19.6447 5.12774L17.9666 5.64666C17.9538 4.7857 17.8517 3.58641 17.4495 2.55035C18.7409 2.79295 19.3766 4.2531 19.6447 5.12499V5.12774ZM16.8357 5.99688L13.225 7.1123C13.5743 5.77619 14.2355 4.44553 15.049 3.57455C15.3902 3.19403 15.8079 2.88979 16.2748 2.68168C16.7445 3.66302 16.8466 5.05479 16.8357 5.99414V5.99688ZM14.5173 1.50426C14.8779 1.48534 15.2355 1.57905 15.5406 1.77239C15.0443 2.03774 14.597 2.38598 14.2182 2.80207C13.1374 3.96125 12.3093 5.76157 11.9792 7.4981L9.0196 8.41649C9.59964 5.68223 11.8907 1.57996 14.5173 1.50426Z" fill="#95BF47"/>
<path d="M27.4699 6.84575C27.3422 6.83572 24.8414 6.79745 24.8414 6.79745C24.8414 6.79745 22.7502 4.76818 22.544 4.5657C22.4641 4.49128 22.3625 4.44429 22.254 4.43164V35.4951L31.626 33.1658C31.626 33.1658 27.8055 7.31183 27.7782 7.13395C27.7664 7.05838 27.7296 6.98891 27.6737 6.93668C27.6178 6.8844 27.5461 6.85243 27.4699 6.84575Z" fill="#5E8E3E"/>
<path d="M17.0634 11.6681L15.9745 15.7403C15.1347 15.3924 14.2284 15.2345 13.3205 15.2779C11.211 15.411 11.1873 16.7426 11.211 17.0764C11.3259 18.9004 16.1177 19.2953 16.3867 23.5618C16.5992 26.918 14.6064 29.2163 11.7354 29.3987C8.29069 29.6158 6.39459 27.5838 6.39459 27.5838L7.12422 24.4829C7.12422 24.4829 9.03125 25.9148 10.5589 25.8163C11.5566 25.7534 11.9141 24.9417 11.8777 24.368C11.7272 21.9968 7.82556 22.1317 7.57932 18.2283C7.3723 14.945 9.52921 11.6143 14.2899 11.3133C16.124 11.1993 17.0634 11.6681 17.0634 11.6681Z" fill="white"/>
<path d="M44.3304 20.3578C43.2443 19.7686 42.6888 19.2716 42.6888 18.5885C42.6888 17.7194 43.4649 17.1612 44.6763 17.1612C46.0862 17.1612 47.3458 17.7504 47.3458 17.7504L48.3316 14.7087C48.3316 14.7087 47.4195 13.9946 44.7307 13.9946C40.9916 13.9946 38.3978 16.1361 38.3978 19.1476C38.3978 20.8549 39.609 22.1573 41.2251 23.0893C42.5283 23.8345 42.9946 24.3662 42.9946 25.1387C42.9946 25.9458 42.3424 26.5979 41.1321 26.5979C39.3281 26.5979 37.6244 25.6667 37.6244 25.6667L36.5665 28.7083C36.5665 28.7083 38.1407 29.7635 40.7883 29.7635C44.6378 29.7635 47.4003 27.8702 47.4003 24.4556C47.4039 22.6242 46.0068 21.32 44.3304 20.3578Z" fill="white"/>
<path d="M59.6588 13.9599C57.7655 13.9599 56.2753 14.86 55.127 16.2253L55.064 16.1952L56.7056 7.59668H52.4293L48.2696 29.4853H52.5562L53.9832 22.0066C54.5425 19.1794 56.0019 17.4465 57.3671 17.4465C58.3292 17.4465 58.7021 18.0986 58.7021 19.0298C58.7021 19.6655 58.6391 20.2997 58.515 20.9232L56.8984 29.4844H61.1846L62.8601 20.6377C63.0456 19.7171 63.1496 18.782 63.1712 17.8433C63.1667 15.4191 61.8932 13.9599 59.6588 13.9599Z" fill="white"/>
<path d="M72.851 13.96C67.6982 13.96 64.2852 18.6195 64.2852 23.8034C64.2852 27.125 66.3337 29.7945 70.1835 29.7945C75.2434 29.7945 78.6571 25.2627 78.6571 19.9547C78.6551 16.8785 76.8551 13.96 72.851 13.96ZM70.7407 26.5003C69.2816 26.5003 68.6602 25.2591 68.6602 23.7068C68.6602 21.2544 69.937 17.2506 72.2611 17.2506C73.7823 17.2506 74.2785 18.5538 74.2785 19.827C74.2785 22.4692 73.0061 26.504 70.7407 26.504V26.5003Z" fill="white"/>
<path d="M89.6179 13.96C86.7261 13.96 85.0845 16.5136 85.0845 16.5136H85.0223L85.2704 14.2163H81.4853C81.3031 15.7667 80.9576 18.1279 80.6162 19.8972L77.6368 35.5676H81.9233L83.1023 29.2355H83.1936C83.1936 29.2355 84.0729 29.7945 85.708 29.7945C90.7372 29.7945 94.0269 24.6416 94.0269 19.4267C94.0224 16.5401 92.7537 13.96 89.6179 13.96ZM85.5213 26.566C84.8765 26.5754 84.2494 26.3557 83.752 25.9458L84.4659 21.9411C84.9621 19.2716 86.3593 17.5023 87.8486 17.5023C89.1529 17.5023 89.5561 18.7126 89.5561 19.8617C89.5532 22.6242 87.9116 26.566 85.5213 26.566Z" fill="white"/>
<path d="M100.143 7.81739C99.8185 7.81637 99.4967 7.8802 99.1967 8.00502C98.8966 8.12988 98.6248 8.31328 98.3959 8.54449C98.1679 8.77575 97.9882 9.05019 97.8666 9.35174C97.7462 9.65333 97.6861 9.97599 97.6918 10.3008C97.6918 11.5776 98.4987 12.4422 99.7092 12.4422H99.771C101.106 12.4422 102.254 11.542 102.285 9.95883C102.285 8.71757 101.447 7.81739 100.143 7.81739Z" fill="white"/>
<path d="M94.1446 29.4844H98.4283L101.346 14.3047H97.0311L94.1446 29.4844Z" fill="white"/>
<path d="M112.249 14.2737H109.27L109.425 13.5604C109.673 12.1012 110.542 10.797 111.97 10.797C112.435 10.7977 112.897 10.8713 113.338 11.015L114.174 7.66698C114.174 7.66698 113.429 7.29395 111.845 7.29395C110.325 7.29395 108.803 7.72899 107.656 8.72218C106.196 9.96344 105.513 11.7638 105.172 13.565L105.048 14.2782H103.062L102.44 17.5068H104.427L102.16 29.489H106.447L108.708 17.5022H111.656L112.249 14.2737Z" fill="white"/>
<path d="M122.547 14.3047C122.547 14.3047 119.869 21.0537 118.667 24.7346H118.606C118.522 23.549 117.549 14.3047 117.549 14.3047H113.048L115.625 28.2423C115.687 28.5523 115.656 28.7393 115.534 28.9564C115.037 29.9185 114.199 30.8497 113.205 31.5328C112.398 32.1229 111.498 32.495 110.785 32.7431L111.964 36.3757C112.833 36.1933 114.633 35.4746 116.16 34.0473C118.115 32.216 119.915 29.3905 121.777 25.5418L127.024 14.3047H122.547Z" fill="white"/>
</svg>
